<?xml version="1.0" encoding="UTF-8"?>
<!DOCTYPE svg PUBLIC "-//W3C//DTD SVG 1.1//EN" "http://www.w3.org/Graphics/SVG/1.1/DTD/svg11.dtd">
<svg width="177mm" height="141mm" viewBox="0 0 17700 14100" version="1.1" baseProfile="tiny" xmlns="http://www.w3.org/2000/svg" stroke-width="28.222" stroke-linejoin="round" xml:space="preserve">
 <path fill="rgb(255,255,255)" stroke="none" d="M 8831,14131 L 0,14131 0,0 17662,0 17662,14131 8831,14131 Z"/>
 <path fill="none" stroke="rgb(179,179,179)" stroke-linejoin="round" d="M 8035,12221 L 2832,12221 2832,481 13238,481 13238,12221 8035,12221 Z"/>
 <path fill="none" stroke="rgb(179,179,179)" stroke-linejoin="round" d="M 13238,12220 L 2832,12220"/>
 <path fill="none" stroke="rgb(179,179,179)" stroke-linejoin="round" d="M 13238,9871 L 2832,9871"/>
 <path fill="none" stroke="rgb(179,179,179)" stroke-linejoin="round" d="M 13238,7523 L 2832,7523"/>
 <path fill="none" stroke="rgb(179,179,179)" stroke-linejoin="round" d="M 13238,5176 L 2832,5176"/>
 <path fill="none" stroke="rgb(179,179,179)" stroke-linejoin="round" d="M 13238,2828 L 2832,2828"/>
 <path fill="none" stroke="rgb(179,179,179)" stroke-linejoin="round" d="M 13238,480 L 2832,480"/>
 <path fill="none" stroke="rgb(179,179,179)" stroke-linejoin="round" d="M 2832,12370 L 2832,12220"/>
 <path fill="none" stroke="rgb(179,179,179)" stroke-linejoin="round" d="M 2832,12370 L 2832,12220"/>
 <path fill="none" stroke="rgb(179,179,179)" stroke-linejoin="round" d="M 3778,12370 L 3778,12220"/>
 <path fill="none" stroke="rgb(179,179,179)" stroke-linejoin="round" d="M 3778,12370 L 3778,12220"/>
 <path fill="none" stroke="rgb(179,179,179)" stroke-linejoin="round" d="M 4724,12370 L 4724,12220"/>
 <path fill="none" stroke="rgb(179,179,179)" stroke-linejoin="round" d="M 4724,12370 L 4724,12220"/>
 <path fill="none" stroke="rgb(179,179,179)" stroke-linejoin="round" d="M 5670,12370 L 5670,12220"/>
 <path fill="none" stroke="rgb(179,179,179)" stroke-linejoin="round" d="M 5670,12370 L 5670,12220"/>
 <path fill="none" stroke="rgb(179,179,179)" stroke-linejoin="round" d="M 6616,12370 L 6616,12220"/>
 <path fill="none" stroke="rgb(179,179,179)" stroke-linejoin="round" d="M 6616,12370 L 6616,12220"/>
 <path fill="none" stroke="rgb(179,179,179)" stroke-linejoin="round" d="M 7562,12370 L 7562,12220"/>
 <path fill="none" stroke="rgb(179,179,179)" stroke-linejoin="round" d="M 7562,12370 L 7562,12220"/>
 <path fill="none" stroke="rgb(179,179,179)" stroke-linejoin="round" d="M 8508,12370 L 8508,12220"/>
 <path fill="none" stroke="rgb(179,179,179)" stroke-linejoin="round" d="M 8508,12370 L 8508,12220"/>
 <path fill="none" stroke="rgb(179,179,179)" stroke-linejoin="round" d="M 9453,12370 L 9453,12220"/>
 <path fill="none" stroke="rgb(179,179,179)" stroke-linejoin="round" d="M 9453,12370 L 9453,12220"/>
 <path fill="none" stroke="rgb(179,179,179)" stroke-linejoin="round" d="M 10399,12370 L 10399,12220"/>
 <path fill="none" stroke="rgb(179,179,179)" stroke-linejoin="round" d="M 10399,12370 L 10399,12220"/>
 <path fill="none" stroke="rgb(179,179,179)" stroke-linejoin="round" d="M 11345,12370 L 11345,12220"/>
 <path fill="none" stroke="rgb(179,179,179)" stroke-linejoin="round" d="M 11345,12370 L 11345,12220"/>
 <path fill="none" stroke="rgb(179,179,179)" stroke-linejoin="round" d="M 12291,12370 L 12291,12220"/>
 <path fill="none" stroke="rgb(179,179,179)" stroke-linejoin="round" d="M 12291,12370 L 12291,12220"/>
 <path fill="none" stroke="rgb(179,179,179)" stroke-linejoin="round" d="M 13238,12370 L 13238,12220"/>
 <path fill="none" stroke="rgb(179,179,179)" stroke-linejoin="round" d="M 13238,12370 L 13238,12220"/>
 <path fill="none" stroke="rgb(179,179,179)" stroke-linejoin="round" d="M 2832,12220 L 13238,12220"/>
 <path fill="none" stroke="rgb(179,179,179)" stroke-linejoin="round" d="M 2682,12220 L 2832,12220"/>
 <path fill="none" stroke="rgb(179,179,179)" stroke-linejoin="round" d="M 2682,12220 L 2832,12220"/>
 <path fill="none" stroke="rgb(179,179,179)" stroke-linejoin="round" d="M 2682,9871 L 2832,9871"/>
 <path fill="none" stroke="rgb(179,179,179)" stroke-linejoin="round" d="M 2682,9871 L 2832,9871"/>
 <path fill="none" stroke="rgb(179,179,179)" stroke-linejoin="round" d="M 2682,7523 L 2832,7523"/>
 <path fill="none" stroke="rgb(179,179,179)" stroke-linejoin="round" d="M 2682,7523 L 2832,7523"/>
 <path fill="none" stroke="rgb(179,179,179)" stroke-linejoin="round" d="M 2682,5176 L 2832,5176"/>
 <path fill="none" stroke="rgb(179,179,179)" stroke-linejoin="round" d="M 2682,5176 L 2832,5176"/>
 <path fill="none" stroke="rgb(179,179,179)" stroke-linejoin="round" d="M 2682,2828 L 2832,2828"/>
 <path fill="none" stroke="rgb(179,179,179)" stroke-linejoin="round" d="M 2682,2828 L 2832,2828"/>
 <path fill="none" stroke="rgb(179,179,179)" stroke-linejoin="round" d="M 2682,480 L 2832,480"/>
 <path fill="none" stroke="rgb(179,179,179)" stroke-linejoin="round" d="M 2682,480 L 2832,480"/>
 <path fill="none" stroke="rgb(179,179,179)" stroke-linejoin="round" d="M 2832,12220 L 2832,480"/>
 <path fill="none" stroke="rgb(0,69,134)" stroke-width="80" stroke-linejoin="round" d="M 2832,4299 L 3778,5644"/>
 <path fill="rgb(0,69,134)" stroke="none" d="M 2707,4174 L 2707,4424 2957,4424 2957,4174 2707,4174 Z"/>
 <path fill="none" stroke="rgb(0,69,134)" stroke-linejoin="round" d="M 2707,4174 L 2707,4424 2957,4424 2957,4174 2707,4174 Z"/>
 <path fill="rgb(0,69,134)" stroke="none" d="M 3653,5519 L 3653,5769 3903,5769 3903,5519 3653,5519 Z"/>
 <path fill="none" stroke="rgb(0,69,134)" stroke-linejoin="round" d="M 3653,5519 L 3653,5769 3903,5769 3903,5519 3653,5519 Z"/>
 <path fill="none" stroke="rgb(255,66,14)" stroke-width="80" stroke-linejoin="round" d="M 2832,5233 L 3778,6405"/>
 <path fill="rgb(255,66,14)" stroke="none" d="M 2707,5233 L 2832,5358 2957,5233 2832,5108 2707,5233 Z"/>
 <path fill="none" stroke="rgb(255,66,14)" stroke-linejoin="round" d="M 2707,5233 L 2832,5358 2957,5233 2832,5108 2707,5233 Z"/>
 <path fill="rgb(255,66,14)" stroke="none" d="M 3653,6405 L 3778,6530 3903,6405 3778,6280 3653,6405 Z"/>
 <path fill="none" stroke="rgb(255,66,14)" stroke-linejoin="round" d="M 3653,6405 L 3778,6530 3903,6405 3778,6280 3653,6405 Z"/>
 <path fill="none" stroke="rgb(255,211,32)" stroke-width="80" stroke-linejoin="round" d="M 2832,3395 L 3778,4460 4724,4598 5670,5768 6616,5738 7562,5735 8508,5710 9453,5938 10399,6708 11345,6815 12291,6913 13238,7002"/>
 <path fill="rgb(255,211,32)" stroke="none" d="M 2707,3270 L 2832,3520 2957,3270 2707,3270 Z"/>
 <path fill="none" stroke="rgb(255,211,32)" stroke-linejoin="round" d="M 2707,3270 L 2832,3520 2957,3270 2707,3270 Z"/>
 <path fill="rgb(255,211,32)" stroke="none" d="M 3653,4335 L 3778,4585 3903,4335 3653,4335 Z"/>
 <path fill="none" stroke="rgb(255,211,32)" stroke-linejoin="round" d="M 3653,4335 L 3778,4585 3903,4335 3653,4335 Z"/>
 <path fill="rgb(255,211,32)" stroke="none" d="M 4599,4473 L 4724,4723 4849,4473 4599,4473 Z"/>
 <path fill="none" stroke="rgb(255,211,32)" stroke-linejoin="round" d="M 4599,4473 L 4724,4723 4849,4473 4599,4473 Z"/>
 <path fill="rgb(255,211,32)" stroke="none" d="M 5545,5643 L 5670,5893 5795,5643 5545,5643 Z"/>
 <path fill="none" stroke="rgb(255,211,32)" stroke-linejoin="round" d="M 5545,5643 L 5670,5893 5795,5643 5545,5643 Z"/>
 <path fill="rgb(255,211,32)" stroke="none" d="M 6491,5613 L 6616,5863 6741,5613 6491,5613 Z"/>
 <path fill="none" stroke="rgb(255,211,32)" stroke-linejoin="round" d="M 6491,5613 L 6616,5863 6741,5613 6491,5613 Z"/>
 <path fill="rgb(255,211,32)" stroke="none" d="M 7437,5610 L 7562,5860 7687,5610 7437,5610 Z"/>
 <path fill="none" stroke="rgb(255,211,32)" stroke-linejoin="round" d="M 7437,5610 L 7562,5860 7687,5610 7437,5610 Z"/>
 <path fill="rgb(255,211,32)" stroke="none" d="M 8383,5585 L 8508,5835 8633,5585 8383,5585 Z"/>
 <path fill="none" stroke="rgb(255,211,32)" stroke-linejoin="round" d="M 8383,5585 L 8508,5835 8633,5585 8383,5585 Z"/>
 <path fill="rgb(255,211,32)" stroke="none" d="M 9328,5813 L 9453,6063 9578,5813 9328,5813 Z"/>
 <path fill="none" stroke="rgb(255,211,32)" stroke-linejoin="round" d="M 9328,5813 L 9453,6063 9578,5813 9328,5813 Z"/>
 <path fill="rgb(255,211,32)" stroke="none" d="M 10274,6583 L 10399,6833 10524,6583 10274,6583 Z"/>
 <path fill="none" stroke="rgb(255,211,32)" stroke-linejoin="round" d="M 10274,6583 L 10399,6833 10524,6583 10274,6583 Z"/>
 <path fill="rgb(255,211,32)" stroke="none" d="M 11220,6690 L 11345,6940 11470,6690 11220,6690 Z"/>
 <path fill="none" stroke="rgb(255,211,32)" stroke-linejoin="round" d="M 11220,6690 L 11345,6940 11470,6690 11220,6690 Z"/>
 <path fill="rgb(255,211,32)" stroke="none" d="M 12166,6788 L 12291,7038 12416,6788 12166,6788 Z"/>
 <path fill="none" stroke="rgb(255,211,32)" stroke-linejoin="round" d="M 12166,6788 L 12291,7038 12416,6788 12166,6788 Z"/>
 <path fill="rgb(255,211,32)" stroke="none" d="M 13113,6877 L 13238,7126 13363,6877 13113,6877 Z"/>
 <path fill="none" stroke="rgb(255,211,32)" stroke-linejoin="round" d="M 13113,6877 L 13238,7126 13363,6877 13113,6877 Z"/>
 <path fill="none" stroke="rgb(87,157,28)" stroke-width="80" stroke-linejoin="round" d="M 2832,4358 L 3778,5171 4724,5351 5670,6272 6616,6256 7562,6311 8508,6217 9453,6473 10399,10686 11345,10806 12291,10913 13238,11002"/>
 <path fill="rgb(87,157,28)" stroke="none" d="M 2707,4483 L 2957,4483 2832,4233 2707,4483 Z"/>
 <path fill="none" stroke="rgb(87,157,28)" stroke-linejoin="round" d="M 2707,4483 L 2957,4483 2832,4233 2707,4483 Z"/>
 <path fill="rgb(87,157,28)" stroke="none" d="M 3653,5296 L 3903,5296 3778,5046 3653,5296 Z"/>
 <path fill="none" stroke="rgb(87,157,28)" stroke-linejoin="round" d="M 3653,5296 L 3903,5296 3778,5046 3653,5296 Z"/>
 <path fill="rgb(87,157,28)" stroke="none" d="M 4599,5476 L 4849,5476 4724,5226 4599,5476 Z"/>
 <path fill="none" stroke="rgb(87,157,28)" stroke-linejoin="round" d="M 4599,5476 L 4849,5476 4724,5226 4599,5476 Z"/>
 <path fill="rgb(87,157,28)" stroke="none" d="M 5545,6397 L 5795,6397 5670,6147 5545,6397 Z"/>
 <path fill="none" stroke="rgb(87,157,28)" stroke-linejoin="round" d="M 5545,6397 L 5795,6397 5670,6147 5545,6397 Z"/>
 <path fill="rgb(87,157,28)" stroke="none" d="M 6491,6381 L 6741,6381 6616,6131 6491,6381 Z"/>
 <path fill="none" stroke="rgb(87,157,28)" stroke-linejoin="round" d="M 6491,6381 L 6741,6381 6616,6131 6491,6381 Z"/>
 <path fill="rgb(87,157,28)" stroke="none" d="M 7437,6436 L 7687,6436 7562,6186 7437,6436 Z"/>
 <path fill="none" stroke="rgb(87,157,28)" stroke-linejoin="round" d="M 7437,6436 L 7687,6436 7562,6186 7437,6436 Z"/>
 <path fill="rgb(87,157,28)" stroke="none" d="M 8383,6342 L 8633,6342 8508,6092 8383,6342 Z"/>
 <path fill="none" stroke="rgb(87,157,28)" stroke-linejoin="round" d="M 8383,6342 L 8633,6342 8508,6092 8383,6342 Z"/>
 <path fill="rgb(87,157,28)" stroke="none" d="M 9328,6598 L 9578,6598 9453,6348 9328,6598 Z"/>
 <path fill="none" stroke="rgb(87,157,28)" stroke-linejoin="round" d="M 9328,6598 L 9578,6598 9453,6348 9328,6598 Z"/>
 <path fill="rgb(87,157,28)" stroke="none" d="M 10274,10811 L 10524,10811 10399,10561 10274,10811 Z"/>
 <path fill="none" stroke="rgb(87,157,28)" stroke-linejoin="round" d="M 10274,10811 L 10524,10811 10399,10561 10274,10811 Z"/>
 <path fill="rgb(87,157,28)" stroke="none" d="M 11220,10931 L 11470,10931 11345,10681 11220,10931 Z"/>
 <path fill="none" stroke="rgb(87,157,28)" stroke-linejoin="round" d="M 11220,10931 L 11470,10931 11345,10681 11220,10931 Z"/>
 <path fill="rgb(87,157,28)" stroke="none" d="M 12166,11038 L 12416,11038 12291,10788 12166,11038 Z"/>
 <path fill="none" stroke="rgb(87,157,28)" stroke-linejoin="round" d="M 12166,11038 L 12416,11038 12291,10788 12166,11038 Z"/>
 <path fill="rgb(87,157,28)" stroke="none" d="M 13113,11127 L 13363,11127 13238,10877 13113,11127 Z"/>
 <path fill="none" stroke="rgb(87,157,28)" stroke-linejoin="round" d="M 13113,11127 L 13363,11127 13238,10877 13113,11127 Z"/>
 <path fill="none" stroke="rgb(126,0,33)" stroke-width="80" stroke-linejoin="round" d="M 2832,2531 L 3778,3683 4724,3641 5670,4761 6616,4709 7562,4815 8508,4776 9453,4776 10399,5731 11345,5695 12291,5803 13238,5881"/>
 <path fill="rgb(126,0,33)" stroke="none" d="M 2707,2406 L 2707,2656 2957,2531 2707,2406 Z"/>
 <path fill="none" stroke="rgb(126,0,33)" stroke-linejoin="round" d="M 2707,2406 L 2707,2656 2957,2531 2707,2406 Z"/>
 <path fill="rgb(126,0,33)" stroke="none" d="M 3653,3558 L 3653,3808 3903,3683 3653,3558 Z"/>
 <path fill="none" stroke="rgb(126,0,33)" stroke-linejoin="round" d="M 3653,3558 L 3653,3808 3903,3683 3653,3558 Z"/>
 <path fill="rgb(126,0,33)" stroke="none" d="M 4599,3516 L 4599,3766 4849,3641 4599,3516 Z"/>
 <path fill="none" stroke="rgb(126,0,33)" stroke-linejoin="round" d="M 4599,3516 L 4599,3766 4849,3641 4599,3516 Z"/>
 <path fill="rgb(126,0,33)" stroke="none" d="M 5545,4636 L 5545,4886 5795,4761 5545,4636 Z"/>
 <path fill="none" stroke="rgb(126,0,33)" stroke-linejoin="round" d="M 5545,4636 L 5545,4886 5795,4761 5545,4636 Z"/>
 <path fill="rgb(126,0,33)" stroke="none" d="M 6491,4584 L 6491,4834 6741,4709 6491,4584 Z"/>
 <path fill="none" stroke="rgb(126,0,33)" stroke-linejoin="round" d="M 6491,4584 L 6491,4834 6741,4709 6491,4584 Z"/>
 <path fill="rgb(126,0,33)" stroke="none" d="M 7437,4690 L 7437,4940 7687,4815 7437,4690 Z"/>
 <path fill="none" stroke="rgb(126,0,33)" stroke-linejoin="round" d="M 7437,4690 L 7437,4940 7687,4815 7437,4690 Z"/>
 <path fill="rgb(126,0,33)" stroke="none" d="M 8383,4651 L 8383,4901 8633,4776 8383,4651 Z"/>
 <path fill="none" stroke="rgb(126,0,33)" stroke-linejoin="round" d="M 8383,4651 L 8383,4901 8633,4776 8383,4651 Z"/>
 <path fill="rgb(126,0,33)" stroke="none" d="M 9328,4651 L 9328,4901 9578,4776 9328,4651 Z"/>
 <path fill="none" stroke="rgb(126,0,33)" stroke-linejoin="round" d="M 9328,4651 L 9328,4901 9578,4776 9328,4651 Z"/>
 <path fill="rgb(126,0,33)" stroke="none" d="M 10274,5606 L 10274,5856 10524,5731 10274,5606 Z"/>
 <path fill="none" stroke="rgb(126,0,33)" stroke-linejoin="round" d="M 10274,5606 L 10274,5856 10524,5731 10274,5606 Z"/>
 <path fill="rgb(126,0,33)" stroke="none" d="M 11220,5570 L 11220,5820 11470,5695 11220,5570 Z"/>
 <path fill="none" stroke="rgb(126,0,33)" stroke-linejoin="round" d="M 11220,5570 L 11220,5820 11470,5695 11220,5570 Z"/>
 <path fill="rgb(126,0,33)" stroke="none" d="M 12166,5678 L 12166,5928 12416,5803 12166,5678 Z"/>
 <path fill="none" stroke="rgb(126,0,33)" stroke-linejoin="round" d="M 12166,5678 L 12166,5928 12416,5803 12166,5678 Z"/>
 <path fill="rgb(126,0,33)" stroke="none" d="M 13113,5756 L 13113,6006 13363,5881 13113,5756 Z"/>
 <path fill="none" stroke="rgb(126,0,33)" stroke-linejoin="round" d="M 13113,5756 L 13113,6006 13363,5881 13113,5756 Z"/>
 <path fill="none" stroke="rgb(131,202,255)" stroke-width="80" stroke-linejoin="round" d="M 2832,3601 L 3778,4263 4724,4362 5670,5147 6616,5124 7562,5177 8508,5136 9453,5298 10399,6307 11345,6294 12291,6325 13238,6316"/>
 <path fill="rgb(131,202,255)" stroke="none" d="M 2707,3601 L 2957,3726 2957,3476 2707,3601 Z"/>
 <path fill="none" stroke="rgb(131,202,255)" stroke-linejoin="round" d="M 2707,3601 L 2957,3726 2957,3476 2707,3601 Z"/>
 <path fill="rgb(131,202,255)" stroke="none" d="M 3653,4263 L 3903,4388 3903,4138 3653,4263 Z"/>
 <path fill="none" stroke="rgb(131,202,255)" stroke-linejoin="round" d="M 3653,4263 L 3903,4388 3903,4138 3653,4263 Z"/>
 <path fill="rgb(131,202,255)" stroke="none" d="M 4599,4362 L 4849,4487 4849,4237 4599,4362 Z"/>
 <path fill="none" stroke="rgb(131,202,255)" stroke-linejoin="round" d="M 4599,4362 L 4849,4487 4849,4237 4599,4362 Z"/>
 <path fill="rgb(131,202,255)" stroke="none" d="M 5545,5147 L 5795,5272 5795,5022 5545,5147 Z"/>
 <path fill="none" stroke="rgb(131,202,255)" stroke-linejoin="round" d="M 5545,5147 L 5795,5272 5795,5022 5545,5147 Z"/>
 <path fill="rgb(131,202,255)" stroke="none" d="M 6491,5124 L 6741,5249 6741,4999 6491,5124 Z"/>
 <path fill="none" stroke="rgb(131,202,255)" stroke-linejoin="round" d="M 6491,5124 L 6741,5249 6741,4999 6491,5124 Z"/>
 <path fill="rgb(131,202,255)" stroke="none" d="M 7437,5177 L 7687,5302 7687,5052 7437,5177 Z"/>
 <path fill="none" stroke="rgb(131,202,255)" stroke-linejoin="round" d="M 7437,5177 L 7687,5302 7687,5052 7437,5177 Z"/>
 <path fill="rgb(131,202,255)" stroke="none" d="M 8383,5136 L 8633,5261 8633,5011 8383,5136 Z"/>
 <path fill="none" stroke="rgb(131,202,255)" stroke-linejoin="round" d="M 8383,5136 L 8633,5261 8633,5011 8383,5136 Z"/>
 <path fill="rgb(131,202,255)" stroke="none" d="M 9328,5298 L 9578,5423 9578,5173 9328,5298 Z"/>
 <path fill="none" stroke="rgb(131,202,255)" stroke-linejoin="round" d="M 9328,5298 L 9578,5423 9578,5173 9328,5298 Z"/>
 <path fill="rgb(131,202,255)" stroke="none" d="M 10274,6307 L 10524,6432 10524,6182 10274,6307 Z"/>
 <path fill="none" stroke="rgb(131,202,255)" stroke-linejoin="round" d="M 10274,6307 L 10524,6432 10524,6182 10274,6307 Z"/>
 <path fill="rgb(131,202,255)" stroke="none" d="M 11220,6294 L 11470,6419 11470,6169 11220,6294 Z"/>
 <path fill="none" stroke="rgb(131,202,255)" stroke-linejoin="round" d="M 11220,6294 L 11470,6419 11470,6169 11220,6294 Z"/>
 <path fill="rgb(131,202,255)" stroke="none" d="M 12166,6325 L 12416,6450 12416,6200 12166,6325 Z"/>
 <path fill="none" stroke="rgb(131,202,255)" stroke-linejoin="round" d="M 12166,6325 L 12416,6450 12416,6200 12166,6325 Z"/>
 <path fill="rgb(131,202,255)" stroke="none" d="M 13113,6316 L 13363,6441 13363,6191 13113,6316 Z"/>
 <path fill="none" stroke="rgb(131,202,255)" stroke-linejoin="round" d="M 13113,6316 L 13363,6441 13363,6191 13113,6316 Z"/>
 <path fill="none" stroke="rgb(49,64,4)" stroke-width="80" stroke-linejoin="round" d="M 2832,1754 L 3778,2914 4724,3641 5670,3897 6616,3910 7562,4815 8508,4776 9453,4603 10399,4774 11345,4842 12291,4644 13238,4806"/>
 <path fill="rgb(49,64,4)" stroke="none" d="M 2707,1629 L 2707,1879 2957,1629 2957,1879 2707,1629 Z"/>
 <path fill="none" stroke="rgb(49,64,4)" stroke-linejoin="round" d="M 2707,1629 L 2707,1879 2957,1629 2957,1879 2707,1629 Z"/>
 <path fill="rgb(49,64,4)" stroke="none" d="M 3653,2789 L 3653,3039 3903,2789 3903,3039 3653,2789 Z"/>
 <path fill="none" stroke="rgb(49,64,4)" stroke-linejoin="round" d="M 3653,2789 L 3653,3039 3903,2789 3903,3039 3653,2789 Z"/>
 <path fill="rgb(49,64,4)" stroke="none" d="M 4599,3516 L 4599,3766 4849,3516 4849,3766 4599,3516 Z"/>
 <path fill="none" stroke="rgb(49,64,4)" stroke-linejoin="round" d="M 4599,3516 L 4599,3766 4849,3516 4849,3766 4599,3516 Z"/>
 <path fill="rgb(49,64,4)" stroke="none" d="M 5545,3772 L 5545,4022 5795,3772 5795,4022 5545,3772 Z"/>
 <path fill="none" stroke="rgb(49,64,4)" stroke-linejoin="round" d="M 5545,3772 L 5545,4022 5795,3772 5795,4022 5545,3772 Z"/>
 <path fill="rgb(49,64,4)" stroke="none" d="M 6491,3785 L 6491,4035 6741,3785 6741,4035 6491,3785 Z"/>
 <path fill="none" stroke="rgb(49,64,4)" stroke-linejoin="round" d="M 6491,3785 L 6491,4035 6741,3785 6741,4035 6491,3785 Z"/>
 <path fill="rgb(49,64,4)" stroke="none" d="M 7437,4690 L 7437,4940 7687,4690 7687,4940 7437,4690 Z"/>
 <path fill="none" stroke="rgb(49,64,4)" stroke-linejoin="round" d="M 7437,4690 L 7437,4940 7687,4690 7687,4940 7437,4690 Z"/>
 <path fill="rgb(49,64,4)" stroke="none" d="M 8383,4651 L 8383,4901 8633,4651 8633,4901 8383,4651 Z"/>
 <path fill="none" stroke="rgb(49,64,4)" stroke-linejoin="round" d="M 8383,4651 L 8383,4901 8633,4651 8633,4901 8383,4651 Z"/>
 <path fill="rgb(49,64,4)" stroke="none" d="M 9328,4478 L 9328,4728 9578,4478 9578,4728 9328,4478 Z"/>
 <path fill="none" stroke="rgb(49,64,4)" stroke-linejoin="round" d="M 9328,4478 L 9328,4728 9578,4478 9578,4728 9328,4478 Z"/>
 <path fill="rgb(49,64,4)" stroke="none" d="M 10274,4649 L 10274,4899 10524,4649 10524,4899 10274,4649 Z"/>
 <path fill="none" stroke="rgb(49,64,4)" stroke-linejoin="round" d="M 10274,4649 L 10274,4899 10524,4649 10524,4899 10274,4649 Z"/>
 <path fill="rgb(49,64,4)" stroke="none" d="M 11220,4717 L 11220,4967 11470,4717 11470,4967 11220,4717 Z"/>
 <path fill="none" stroke="rgb(49,64,4)" stroke-linejoin="round" d="M 11220,4717 L 11220,4967 11470,4717 11470,4967 11220,4717 Z"/>
 <path fill="rgb(49,64,4)" stroke="none" d="M 12166,4519 L 12166,4769 12416,4519 12416,4769 12166,4519 Z"/>
 <path fill="none" stroke="rgb(49,64,4)" stroke-linejoin="round" d="M 12166,4519 L 12166,4769 12416,4519 12416,4769 12166,4519 Z"/>
 <path fill="rgb(49,64,4)" stroke="none" d="M 13113,4681 L 13113,4931 13363,4681 13363,4931 13113,4681 Z"/>
 <path fill="none" stroke="rgb(49,64,4)" stroke-linejoin="round" d="M 13113,4681 L 13113,4931 13363,4681 13363,4931 13113,4681 Z"/>
 <path fill="none" stroke="rgb(174,207,0)" stroke-width="80" stroke-linejoin="round" d="M 2832,2864 L 3778,3577 4724,4115 5670,4311 6616,4399 7562,5177 8508,5114 9453,5168 10399,5207 11345,5214 12291,5163 13238,5171"/>
 <path fill="rgb(174,207,0)" stroke="none" d="M 2707,2989 L 2957,2989 2707,2739 2957,2739 2707,2989 Z"/>
 <path fill="none" stroke="rgb(174,207,0)" stroke-linejoin="round" d="M 2707,2989 L 2957,2989 2707,2739 2957,2739 2707,2989 Z"/>
 <path fill="rgb(174,207,0)" stroke="none" d="M 3653,3702 L 3903,3702 3653,3452 3903,3452 3653,3702 Z"/>
 <path fill="none" stroke="rgb(174,207,0)" stroke-linejoin="round" d="M 3653,3702 L 3903,3702 3653,3452 3903,3452 3653,3702 Z"/>
 <path fill="rgb(174,207,0)" stroke="none" d="M 4599,4240 L 4849,4240 4599,3990 4849,3990 4599,4240 Z"/>
 <path fill="none" stroke="rgb(174,207,0)" stroke-linejoin="round" d="M 4599,4240 L 4849,4240 4599,3990 4849,3990 4599,4240 Z"/>
 <path fill="rgb(174,207,0)" stroke="none" d="M 5545,4436 L 5795,4436 5545,4186 5795,4186 5545,4436 Z"/>
 <path fill="none" stroke="rgb(174,207,0)" stroke-linejoin="round" d="M 5545,4436 L 5795,4436 5545,4186 5795,4186 5545,4436 Z"/>
 <path fill="rgb(174,207,0)" stroke="none" d="M 6491,4524 L 6741,4524 6491,4274 6741,4274 6491,4524 Z"/>
 <path fill="none" stroke="rgb(174,207,0)" stroke-linejoin="round" d="M 6491,4524 L 6741,4524 6491,4274 6741,4274 6491,4524 Z"/>
 <path fill="rgb(174,207,0)" stroke="none" d="M 7437,5302 L 7687,5302 7437,5052 7687,5052 7437,5302 Z"/>
 <path fill="none" stroke="rgb(174,207,0)" stroke-linejoin="round" d="M 7437,5302 L 7687,5302 7437,5052 7687,5052 7437,5302 Z"/>
 <path fill="rgb(174,207,0)" stroke="none" d="M 8383,5239 L 8633,5239 8383,4989 8633,4989 8383,5239 Z"/>
 <path fill="none" stroke="rgb(174,207,0)" stroke-linejoin="round" d="M 8383,5239 L 8633,5239 8383,4989 8633,4989 8383,5239 Z"/>
 <path fill="rgb(174,207,0)" stroke="none" d="M 9328,5293 L 9578,5293 9328,5043 9578,5043 9328,5293 Z"/>
 <path fill="none" stroke="rgb(174,207,0)" stroke-linejoin="round" d="M 9328,5293 L 9578,5293 9328,5043 9578,5043 9328,5293 Z"/>
 <path fill="rgb(174,207,0)" stroke="none" d="M 10274,5332 L 10524,5332 10274,5082 10524,5082 10274,5332 Z"/>
 <path fill="none" stroke="rgb(174,207,0)" stroke-linejoin="round" d="M 10274,5332 L 10524,5332 10274,5082 10524,5082 10274,5332 Z"/>
 <path fill="rgb(174,207,0)" stroke="none" d="M 11220,5339 L 11470,5339 11220,5089 11470,5089 11220,5339 Z"/>
 <path fill="none" stroke="rgb(174,207,0)" stroke-linejoin="round" d="M 11220,5339 L 11470,5339 11220,5089 11470,5089 11220,5339 Z"/>
 <path fill="rgb(174,207,0)" stroke="none" d="M 12166,5288 L 12416,5288 12166,5038 12416,5038 12166,5288 Z"/>
 <path fill="none" stroke="rgb(174,207,0)" stroke-linejoin="round" d="M 12166,5288 L 12416,5288 12166,5038 12416,5038 12166,5288 Z"/>
 <path fill="rgb(174,207,0)" stroke="none" d="M 13113,5296 L 13363,5296 13113,5046 13363,5046 13113,5296 Z"/>
 <path fill="none" stroke="rgb(174,207,0)" stroke-linejoin="round" d="M 13113,5296 L 13363,5296 13113,5046 13363,5046 13113,5296 Z"/>
 <text class="TextShape"><tspan class="TextParagraph" font-family="Liberation Sans" font-size="353px" font-weight="400"><tspan class="TextPosition" x="2739" y="12788"><tspan fill="rgb(0,0,0)" stroke="none">4</tspan></tspan></tspan></text>
 <text class="TextShape"><tspan class="TextParagraph" font-family="Liberation Sans" font-size="353px" font-weight="400"><tspan class="TextPosition" x="3593" y="12788"><tspan fill="rgb(0,0,0)" stroke="none">10</tspan></tspan></tspan></text>
 <text class="TextShape"><tspan class="TextParagraph" font-family="Liberation Sans" font-size="353px" font-weight="400"><tspan class="TextPosition" x="4539" y="12788"><tspan fill="rgb(0,0,0)" stroke="none">15</tspan></tspan></tspan></text>
 <text class="TextShape"><tspan class="TextParagraph" font-family="Liberation Sans" font-size="353px" font-weight="400"><tspan class="TextPosition" x="5485" y="12788"><tspan fill="rgb(0,0,0)" stroke="none">20</tspan></tspan></tspan></text>
 <text class="TextShape"><tspan class="TextParagraph" font-family="Liberation Sans" font-size="353px" font-weight="400"><tspan class="TextPosition" x="6431" y="12788"><tspan fill="rgb(0,0,0)" stroke="none">22</tspan></tspan></tspan></text>
 <text class="TextShape"><tspan class="TextParagraph" font-family="Liberation Sans" font-size="353px" font-weight="400"><tspan class="TextPosition" x="7377" y="12788"><tspan fill="rgb(0,0,0)" stroke="none">25</tspan></tspan></tspan></text>
 <text class="TextShape"><tspan class="TextParagraph" font-family="Liberation Sans" font-size="353px" font-weight="400"><tspan class="TextPosition" x="8323" y="12788"><tspan fill="rgb(0,0,0)" stroke="none">27</tspan></tspan></tspan></text>
 <text class="TextShape"><tspan class="TextParagraph" font-family="Liberation Sans" font-size="353px" font-weight="400"><tspan class="TextPosition" x="9269" y="12788"><tspan fill="rgb(0,0,0)" stroke="none">30</tspan></tspan></tspan></text>
 <text class="TextShape"><tspan class="TextParagraph" font-family="Liberation Sans" font-size="353px" font-weight="400"><tspan class="TextPosition" x="10215" y="12788"><tspan fill="rgb(0,0,0)" stroke="none">32</tspan></tspan></tspan></text>
 <text class="TextShape"><tspan class="TextParagraph" font-family="Liberation Sans" font-size="353px" font-weight="400"><tspan class="TextPosition" x="11161" y="12788"><tspan fill="rgb(0,0,0)" stroke="none">35</tspan></tspan></tspan></text>
 <text class="TextShape"><tspan class="TextParagraph" font-family="Liberation Sans" font-size="353px" font-weight="400"><tspan class="TextPosition" x="12107" y="12788"><tspan fill="rgb(0,0,0)" stroke="none">37</tspan></tspan></tspan></text>
 <text class="TextShape"><tspan class="TextParagraph" font-family="Liberation Sans" font-size="353px" font-weight="400"><tspan class="TextPosition" x="13054" y="12788"><tspan fill="rgb(0,0,0)" stroke="none">40</tspan></tspan></tspan></text>
 <text class="TextShape"><tspan class="TextParagraph" font-family="Liberation Sans" font-size="353px" font-weight="400"><tspan class="TextPosition" x="1365" y="12341"><tspan fill="rgb(0,0,0)" stroke="none">0.00001</tspan></tspan></tspan></text>
 <text class="TextShape"><tspan class="TextParagraph" font-family="Liberation Sans" font-size="353px" font-weight="400"><tspan class="TextPosition" x="1550" y="9992"><tspan fill="rgb(0,0,0)" stroke="none">0.0001</tspan></tspan></tspan></text>
 <text class="TextShape"><tspan class="TextParagraph" font-family="Liberation Sans" font-size="353px" font-weight="400"><tspan class="TextPosition" x="1735" y="7644"><tspan fill="rgb(0,0,0)" stroke="none">0.001</tspan></tspan></tspan></text>
 <text class="TextShape"><tspan class="TextParagraph" font-family="Liberation Sans" font-size="353px" font-weight="400"><tspan class="TextPosition" x="1921" y="5296"><tspan fill="rgb(0,0,0)" stroke="none">0.01</tspan></tspan></tspan></text>
 <text class="TextShape"><tspan class="TextParagraph" font-family="Liberation Sans" font-size="353px" font-weight="400"><tspan class="TextPosition" x="2106" y="2948"><tspan fill="rgb(0,0,0)" stroke="none">0.1</tspan></tspan></tspan></text>
 <text class="TextShape"><tspan class="TextParagraph" font-family="Liberation Sans" font-size="353px" font-weight="400"><tspan class="TextPosition" x="2397" y="600"><tspan fill="rgb(0,0,0)" stroke="none">1</tspan></tspan></tspan></text>
 <path fill="none" stroke="rgb(0,69,134)" stroke-width="80" stroke-linejoin="round" d="M 13894,5322 L 14694,5322"/>
 <path fill="rgb(0,69,134)" stroke="none" d="M 14188,5217 L 14188,5427 14399,5427 14399,5217 14188,5217 Z"/>
 <path fill="none" stroke="rgb(0,69,134)" stroke-linejoin="round" d="M 14188,5217 L 14188,5427 14399,5427 14399,5217 14188,5217 Z"/>
 <path fill="none" stroke="rgb(255,66,14)" stroke-width="80" stroke-linejoin="round" d="M 13894,5820 L 14694,5820"/>
 <path fill="rgb(255,66,14)" stroke="none" d="M 14188,5820 L 14294,5925 14399,5820 14294,5715 14188,5820 Z"/>
 <path fill="none" stroke="rgb(255,66,14)" stroke-linejoin="round" d="M 14188,5820 L 14294,5925 14399,5820 14294,5715 14188,5820 Z"/>
 <path fill="none" stroke="rgb(255,211,32)" stroke-width="80" stroke-linejoin="round" d="M 13894,6318 L 14694,6318"/>
 <path fill="rgb(255,211,32)" stroke="none" d="M 14188,6213 L 14294,6423 14399,6213 14188,6213 Z"/>
 <path fill="none" stroke="rgb(255,211,32)" stroke-linejoin="round" d="M 14188,6213 L 14294,6423 14399,6213 14188,6213 Z"/>
 <path fill="none" stroke="rgb(87,157,28)" stroke-width="80" stroke-linejoin="round" d="M 13894,6816 L 14694,6816"/>
 <path fill="rgb(87,157,28)" stroke="none" d="M 14188,6921 L 14399,6921 14294,6711 14188,6921 Z"/>
 <path fill="none" stroke="rgb(87,157,28)" stroke-linejoin="round" d="M 14188,6921 L 14399,6921 14294,6711 14188,6921 Z"/>
 <path fill="none" stroke="rgb(126,0,33)" stroke-width="80" stroke-linejoin="round" d="M 13894,7313 L 14694,7313"/>
 <path fill="rgb(126,0,33)" stroke="none" d="M 14188,7208 L 14188,7418 14399,7313 14188,7208 Z"/>
 <path fill="none" stroke="rgb(126,0,33)" stroke-linejoin="round" d="M 14188,7208 L 14188,7418 14399,7313 14188,7208 Z"/>
 <path fill="none" stroke="rgb(131,202,255)" stroke-width="80" stroke-linejoin="round" d="M 13894,7811 L 14694,7811"/>
 <path fill="rgb(131,202,255)" stroke="none" d="M 14188,7811 L 14399,7916 14399,7706 14188,7811 Z"/>
 <path fill="none" stroke="rgb(131,202,255)" stroke-linejoin="round" d="M 14188,7811 L 14399,7916 14399,7706 14188,7811 Z"/>
 <path fill="none" stroke="rgb(49,64,4)" stroke-width="80" stroke-linejoin="round" d="M 13894,8309 L 14694,8309"/>
 <path fill="rgb(49,64,4)" stroke="none" d="M 14188,8204 L 14188,8414 14399,8204 14399,8414 14188,8204 Z"/>
 <path fill="none" stroke="rgb(49,64,4)" stroke-linejoin="round" d="M 14188,8204 L 14188,8414 14399,8204 14399,8414 14188,8204 Z"/>
 <path fill="none" stroke="rgb(174,207,0)" stroke-width="80" stroke-linejoin="round" d="M 13894,8807 L 14694,8807"/>
 <path fill="rgb(174,207,0)" stroke="none" d="M 14188,8912 L 14399,8912 14188,8702 14399,8702 14188,8912 Z"/>
 <path fill="none" stroke="rgb(174,207,0)" stroke-linejoin="round" d="M 14188,8912 L 14399,8912 14188,8702 14399,8702 14188,8912 Z"/>
 <text class="TextShape"><tspan class="TextParagraph" font-family="Liberation Sans" font-size="353px" font-weight="400"><tspan class="TextPosition" x="14794" y="5442"><tspan fill="rgb(0,0,0)" stroke="none">E=0.1 (max)</tspan></tspan></tspan></text>
 <text class="TextShape"><tspan class="TextParagraph" font-family="Liberation Sans" font-size="353px" font-weight="400"><tspan class="TextPosition" x="14794" y="5940"><tspan fill="rgb(0,0,0)" stroke="none">E=0.1 (relative)</tspan></tspan></tspan></text>
 <text class="TextShape"><tspan class="TextParagraph" font-family="Liberation Sans" font-size="353px" font-weight="400"><tspan class="TextPosition" x="14794" y="6438"><tspan fill="rgb(0,0,0)" stroke="none">E=0.25 (max)</tspan></tspan></tspan></text>
 <text class="TextShape"><tspan class="TextParagraph" font-family="Liberation Sans" font-size="353px" font-weight="400"><tspan class="TextPosition" x="14794" y="6936"><tspan fill="rgb(0,0,0)" stroke="none">E=0.25 (relative)</tspan></tspan></tspan></text>
 <text class="TextShape"><tspan class="TextParagraph" font-family="Liberation Sans" font-size="353px" font-weight="400"><tspan class="TextPosition" x="14794" y="7433"><tspan fill="rgb(0,0,0)" stroke="none">E=0.5 (max)</tspan></tspan></tspan></text>
 <text class="TextShape"><tspan class="TextParagraph" font-family="Liberation Sans" font-size="353px" font-weight="400"><tspan class="TextPosition" x="14794" y="7931"><tspan fill="rgb(0,0,0)" stroke="none">E=0.5 (relative)</tspan></tspan></tspan></text>
 <text class="TextShape"><tspan class="TextParagraph" font-family="Liberation Sans" font-size="353px" font-weight="400"><tspan class="TextPosition" x="14794" y="8429"><tspan fill="rgb(0,0,0)" stroke="none">E=0.75 (max)</tspan></tspan></tspan></text>
 <text class="TextShape"><tspan class="TextParagraph" font-family="Liberation Sans" font-size="353px" font-weight="400"><tspan class="TextPosition" x="14794" y="8927"><tspan fill="rgb(0,0,0)" stroke="none">E=0.75 (relative)</tspan></tspan></tspan></text>
 <text class="TextShape"><tspan class="TextParagraph" font-family="Liberation Sans" font-size="318px" font-weight="400"><tspan class="TextPosition" x="6455" y="13537"><tspan fill="rgb(0,0,0)" stroke="none">instance size</tspan></tspan></tspan></text>
 <text class="TextShape"><tspan class="TextParagraph" font-family="Liberation Sans" font-size="318px" font-weight="400"><tspan class="TextPosition" x="837" y="6918" transform="translate(837,6918) rotate(-90) translate(-837,-6918)"><tspan fill="rgb(0,0,0)" stroke="none">error</tspan></tspan></tspan></text>
</svg>