<?xml version="1.0" encoding="UTF-8"?>
<!DOCTYPE svg PUBLIC "-//W3C//DTD SVG 1.1//EN" "http://www.w3.org/Graphics/SVG/1.1/DTD/svg11.dtd">
<svg width="177mm" height="181mm" viewBox="0 0 17700 18100" version="1.1" baseProfile="tiny" xmlns="http://www.w3.org/2000/svg" stroke-width="28.222" stroke-linejoin="round" xml:space="preserve">
 <path fill="rgb(255,255,255)" stroke="none" d="M 8873,18063 L 0,18063 0,0 17745,0 17745,18063 8873,18063 Z"/>
 <path fill="none" stroke="rgb(179,179,179)" stroke-linejoin="round" d="M 7998,16074 L 2463,16074 2463,560 13532,560 13532,16074 7998,16074 Z"/>
 <path fill="none" stroke="rgb(179,179,179)" stroke-linejoin="round" d="M 13532,16073 L 2463,16073"/>
 <path fill="none" stroke="rgb(179,179,179)" stroke-linejoin="round" d="M 13532,13487 L 2463,13487"/>
 <path fill="none" stroke="rgb(179,179,179)" stroke-linejoin="round" d="M 13532,10901 L 2463,10901"/>
 <path fill="none" stroke="rgb(179,179,179)" stroke-linejoin="round" d="M 13532,8316 L 2463,8316"/>
 <path fill="none" stroke="rgb(179,179,179)" stroke-linejoin="round" d="M 13532,5730 L 2463,5730"/>
 <path fill="none" stroke="rgb(179,179,179)" stroke-linejoin="round" d="M 13532,3144 L 2463,3144"/>
 <path fill="none" stroke="rgb(179,179,179)" stroke-linejoin="round" d="M 13532,558 L 2463,558"/>
 <path fill="none" stroke="rgb(179,179,179)" stroke-linejoin="round" d="M 2463,16223 L 2463,16073"/>
 <path fill="none" stroke="rgb(179,179,179)" stroke-linejoin="round" d="M 2463,16223 L 2463,16073"/>
 <path fill="none" stroke="rgb(179,179,179)" stroke-linejoin="round" d="M 3469,16223 L 3469,16073"/>
 <path fill="none" stroke="rgb(179,179,179)" stroke-linejoin="round" d="M 3469,16223 L 3469,16073"/>
 <path fill="none" stroke="rgb(179,179,179)" stroke-linejoin="round" d="M 4475,16223 L 4475,16073"/>
 <path fill="none" stroke="rgb(179,179,179)" stroke-linejoin="round" d="M 4475,16223 L 4475,16073"/>
 <path fill="none" stroke="rgb(179,179,179)" stroke-linejoin="round" d="M 5482,16223 L 5482,16073"/>
 <path fill="none" stroke="rgb(179,179,179)" stroke-linejoin="round" d="M 5482,16223 L 5482,16073"/>
 <path fill="none" stroke="rgb(179,179,179)" stroke-linejoin="round" d="M 6488,16223 L 6488,16073"/>
 <path fill="none" stroke="rgb(179,179,179)" stroke-linejoin="round" d="M 6488,16223 L 6488,16073"/>
 <path fill="none" stroke="rgb(179,179,179)" stroke-linejoin="round" d="M 7494,16223 L 7494,16073"/>
 <path fill="none" stroke="rgb(179,179,179)" stroke-linejoin="round" d="M 7494,16223 L 7494,16073"/>
 <path fill="none" stroke="rgb(179,179,179)" stroke-linejoin="round" d="M 8501,16223 L 8501,16073"/>
 <path fill="none" stroke="rgb(179,179,179)" stroke-linejoin="round" d="M 8501,16223 L 8501,16073"/>
 <path fill="none" stroke="rgb(179,179,179)" stroke-linejoin="round" d="M 9506,16223 L 9506,16073"/>
 <path fill="none" stroke="rgb(179,179,179)" stroke-linejoin="round" d="M 9506,16223 L 9506,16073"/>
 <path fill="none" stroke="rgb(179,179,179)" stroke-linejoin="round" d="M 10512,16223 L 10512,16073"/>
 <path fill="none" stroke="rgb(179,179,179)" stroke-linejoin="round" d="M 10512,16223 L 10512,16073"/>
 <path fill="none" stroke="rgb(179,179,179)" stroke-linejoin="round" d="M 11519,16223 L 11519,16073"/>
 <path fill="none" stroke="rgb(179,179,179)" stroke-linejoin="round" d="M 11519,16223 L 11519,16073"/>
 <path fill="none" stroke="rgb(179,179,179)" stroke-linejoin="round" d="M 12525,16223 L 12525,16073"/>
 <path fill="none" stroke="rgb(179,179,179)" stroke-linejoin="round" d="M 12525,16223 L 12525,16073"/>
 <path fill="none" stroke="rgb(179,179,179)" stroke-linejoin="round" d="M 13532,16223 L 13532,16073"/>
 <path fill="none" stroke="rgb(179,179,179)" stroke-linejoin="round" d="M 13532,16223 L 13532,16073"/>
 <path fill="none" stroke="rgb(179,179,179)" stroke-linejoin="round" d="M 2463,16073 L 13532,16073"/>
 <path fill="none" stroke="rgb(179,179,179)" stroke-linejoin="round" d="M 2313,16073 L 2463,16073"/>
 <path fill="none" stroke="rgb(179,179,179)" stroke-linejoin="round" d="M 2313,16073 L 2463,16073"/>
 <path fill="none" stroke="rgb(179,179,179)" stroke-linejoin="round" d="M 2313,13487 L 2463,13487"/>
 <path fill="none" stroke="rgb(179,179,179)" stroke-linejoin="round" d="M 2313,13487 L 2463,13487"/>
 <path fill="none" stroke="rgb(179,179,179)" stroke-linejoin="round" d="M 2313,10901 L 2463,10901"/>
 <path fill="none" stroke="rgb(179,179,179)" stroke-linejoin="round" d="M 2313,10901 L 2463,10901"/>
 <path fill="none" stroke="rgb(179,179,179)" stroke-linejoin="round" d="M 2313,8316 L 2463,8316"/>
 <path fill="none" stroke="rgb(179,179,179)" stroke-linejoin="round" d="M 2313,8316 L 2463,8316"/>
 <path fill="none" stroke="rgb(179,179,179)" stroke-linejoin="round" d="M 2313,5730 L 2463,5730"/>
 <path fill="none" stroke="rgb(179,179,179)" stroke-linejoin="round" d="M 2313,5730 L 2463,5730"/>
 <path fill="none" stroke="rgb(179,179,179)" stroke-linejoin="round" d="M 2313,3144 L 2463,3144"/>
 <path fill="none" stroke="rgb(179,179,179)" stroke-linejoin="round" d="M 2313,3144 L 2463,3144"/>
 <path fill="none" stroke="rgb(179,179,179)" stroke-linejoin="round" d="M 2313,559 L 2463,559"/>
 <path fill="none" stroke="rgb(179,179,179)" stroke-linejoin="round" d="M 2313,559 L 2463,559"/>
 <path fill="none" stroke="rgb(179,179,179)" stroke-linejoin="round" d="M 2463,16073 L 2463,558"/>
 <path fill="none" stroke="rgb(0,69,134)" stroke-width="80" stroke-linejoin="round" d="M 2463,15176 L 3469,13760 4475,11071 5482,7212 6488,5659"/>
 <path fill="rgb(0,69,134)" stroke="none" d="M 2338,15051 L 2338,15301 2588,15301 2588,15051 2338,15051 Z"/>
 <path fill="none" stroke="rgb(0,69,134)" stroke-linejoin="round" d="M 2338,15051 L 2338,15301 2588,15301 2588,15051 2338,15051 Z"/>
 <path fill="rgb(0,69,134)" stroke="none" d="M 3344,13635 L 3344,13885 3594,13885 3594,13635 3344,13635 Z"/>
 <path fill="none" stroke="rgb(0,69,134)" stroke-linejoin="round" d="M 3344,13635 L 3344,13885 3594,13885 3594,13635 3344,13635 Z"/>
 <path fill="rgb(0,69,134)" stroke="none" d="M 4350,10946 L 4350,11196 4600,11196 4600,10946 4350,10946 Z"/>
 <path fill="none" stroke="rgb(0,69,134)" stroke-linejoin="round" d="M 4350,10946 L 4350,11196 4600,11196 4600,10946 4350,10946 Z"/>
 <path fill="rgb(0,69,134)" stroke="none" d="M 5357,7087 L 5357,7337 5607,7337 5607,7087 5357,7087 Z"/>
 <path fill="none" stroke="rgb(0,69,134)" stroke-linejoin="round" d="M 5357,7087 L 5357,7337 5607,7337 5607,7087 5357,7087 Z"/>
 <path fill="rgb(0,69,134)" stroke="none" d="M 6363,5534 L 6363,5784 6613,5784 6613,5534 6363,5534 Z"/>
 <path fill="none" stroke="rgb(0,69,134)" stroke-linejoin="round" d="M 6363,5534 L 6363,5784 6613,5784 6613,5534 6363,5534 Z"/>
 <path fill="none" stroke="rgb(255,66,14)" stroke-width="80" stroke-linejoin="round" d="M 2463,14590 L 3469,14198 4475,14064 5482,11752 6488,10467 7494,8180 8501,6639 9506,4238 10512,2719"/>
 <path fill="rgb(255,66,14)" stroke="none" d="M 2338,14590 L 2463,14715 2588,14590 2463,14465 2338,14590 Z"/>
 <path fill="none" stroke="rgb(255,66,14)" stroke-linejoin="round" d="M 2338,14590 L 2463,14715 2588,14590 2463,14465 2338,14590 Z"/>
 <path fill="rgb(255,66,14)" stroke="none" d="M 3344,14198 L 3469,14323 3594,14198 3469,14073 3344,14198 Z"/>
 <path fill="none" stroke="rgb(255,66,14)" stroke-linejoin="round" d="M 3344,14198 L 3469,14323 3594,14198 3469,14073 3344,14198 Z"/>
 <path fill="rgb(255,66,14)" stroke="none" d="M 4350,14064 L 4475,14189 4600,14064 4475,13939 4350,14064 Z"/>
 <path fill="none" stroke="rgb(255,66,14)" stroke-linejoin="round" d="M 4350,14064 L 4475,14189 4600,14064 4475,13939 4350,14064 Z"/>
 <path fill="rgb(255,66,14)" stroke="none" d="M 5357,11752 L 5482,11877 5607,11752 5482,11627 5357,11752 Z"/>
 <path fill="none" stroke="rgb(255,66,14)" stroke-linejoin="round" d="M 5357,11752 L 5482,11877 5607,11752 5482,11627 5357,11752 Z"/>
 <path fill="rgb(255,66,14)" stroke="none" d="M 6363,10467 L 6488,10592 6613,10467 6488,10342 6363,10467 Z"/>
 <path fill="none" stroke="rgb(255,66,14)" stroke-linejoin="round" d="M 6363,10467 L 6488,10592 6613,10467 6488,10342 6363,10467 Z"/>
 <path fill="rgb(255,66,14)" stroke="none" d="M 7369,8180 L 7494,8305 7619,8180 7494,8055 7369,8180 Z"/>
 <path fill="none" stroke="rgb(255,66,14)" stroke-linejoin="round" d="M 7369,8180 L 7494,8305 7619,8180 7494,8055 7369,8180 Z"/>
 <path fill="rgb(255,66,14)" stroke="none" d="M 8376,6639 L 8501,6764 8626,6639 8501,6514 8376,6639 Z"/>
 <path fill="none" stroke="rgb(255,66,14)" stroke-linejoin="round" d="M 8376,6639 L 8501,6764 8626,6639 8501,6514 8376,6639 Z"/>
 <path fill="rgb(255,66,14)" stroke="none" d="M 9381,4238 L 9506,4363 9631,4238 9506,4113 9381,4238 Z"/>
 <path fill="none" stroke="rgb(255,66,14)" stroke-linejoin="round" d="M 9381,4238 L 9506,4363 9631,4238 9506,4113 9381,4238 Z"/>
 <path fill="rgb(255,66,14)" stroke="none" d="M 10387,2719 L 10512,2844 10637,2719 10512,2594 10387,2719 Z"/>
 <path fill="none" stroke="rgb(255,66,14)" stroke-linejoin="round" d="M 10387,2719 L 10512,2844 10637,2719 10512,2594 10387,2719 Z"/>
 <path fill="none" stroke="rgb(255,211,32)" stroke-width="80" stroke-linejoin="round" d="M 2463,11685 L 3469,10640 4475,9401 5482,8838 6488,8734 7494,8384 8501,8141 9506,7846 10512,7652 11519,7449 12525,7259 13532,7081"/>
 <path fill="rgb(255,211,32)" stroke="none" d="M 2338,11560 L 2463,11810 2588,11560 2338,11560 Z"/>
 <path fill="none" stroke="rgb(255,211,32)" stroke-linejoin="round" d="M 2338,11560 L 2463,11810 2588,11560 2338,11560 Z"/>
 <path fill="rgb(255,211,32)" stroke="none" d="M 3344,10515 L 3469,10765 3594,10515 3344,10515 Z"/>
 <path fill="none" stroke="rgb(255,211,32)" stroke-linejoin="round" d="M 3344,10515 L 3469,10765 3594,10515 3344,10515 Z"/>
 <path fill="rgb(255,211,32)" stroke="none" d="M 4350,9276 L 4475,9526 4600,9276 4350,9276 Z"/>
 <path fill="none" stroke="rgb(255,211,32)" stroke-linejoin="round" d="M 4350,9276 L 4475,9526 4600,9276 4350,9276 Z"/>
 <path fill="rgb(255,211,32)" stroke="none" d="M 5357,8713 L 5482,8963 5607,8713 5357,8713 Z"/>
 <path fill="none" stroke="rgb(255,211,32)" stroke-linejoin="round" d="M 5357,8713 L 5482,8963 5607,8713 5357,8713 Z"/>
 <path fill="rgb(255,211,32)" stroke="none" d="M 6363,8609 L 6488,8859 6613,8609 6363,8609 Z"/>
 <path fill="none" stroke="rgb(255,211,32)" stroke-linejoin="round" d="M 6363,8609 L 6488,8859 6613,8609 6363,8609 Z"/>
 <path fill="rgb(255,211,32)" stroke="none" d="M 7369,8259 L 7494,8509 7619,8259 7369,8259 Z"/>
 <path fill="none" stroke="rgb(255,211,32)" stroke-linejoin="round" d="M 7369,8259 L 7494,8509 7619,8259 7369,8259 Z"/>
 <path fill="rgb(255,211,32)" stroke="none" d="M 8376,8016 L 8501,8266 8626,8016 8376,8016 Z"/>
 <path fill="none" stroke="rgb(255,211,32)" stroke-linejoin="round" d="M 8376,8016 L 8501,8266 8626,8016 8376,8016 Z"/>
 <path fill="rgb(255,211,32)" stroke="none" d="M 9381,7721 L 9506,7971 9631,7721 9381,7721 Z"/>
 <path fill="none" stroke="rgb(255,211,32)" stroke-linejoin="round" d="M 9381,7721 L 9506,7971 9631,7721 9381,7721 Z"/>
 <path fill="rgb(255,211,32)" stroke="none" d="M 10387,7527 L 10512,7777 10637,7527 10387,7527 Z"/>
 <path fill="none" stroke="rgb(255,211,32)" stroke-linejoin="round" d="M 10387,7527 L 10512,7777 10637,7527 10387,7527 Z"/>
 <path fill="rgb(255,211,32)" stroke="none" d="M 11394,7324 L 11519,7574 11644,7324 11394,7324 Z"/>
 <path fill="none" stroke="rgb(255,211,32)" stroke-linejoin="round" d="M 11394,7324 L 11519,7574 11644,7324 11394,7324 Z"/>
 <path fill="rgb(255,211,32)" stroke="none" d="M 12400,7134 L 12525,7384 12650,7134 12400,7134 Z"/>
 <path fill="none" stroke="rgb(255,211,32)" stroke-linejoin="round" d="M 12400,7134 L 12525,7384 12650,7134 12400,7134 Z"/>
 <path fill="rgb(255,211,32)" stroke="none" d="M 13407,6956 L 13532,7206 13657,6956 13407,6956 Z"/>
 <path fill="none" stroke="rgb(255,211,32)" stroke-linejoin="round" d="M 13407,6956 L 13532,7206 13657,6956 13407,6956 Z"/>
 <path fill="none" stroke="rgb(87,157,28)" stroke-width="80" stroke-linejoin="round" d="M 2463,13347 L 3469,10082 4475,6116 5482,2340"/>
 <path fill="rgb(87,157,28)" stroke="none" d="M 2338,13472 L 2588,13472 2463,13222 2338,13472 Z"/>
 <path fill="none" stroke="rgb(87,157,28)" stroke-linejoin="round" d="M 2338,13472 L 2588,13472 2463,13222 2338,13472 Z"/>
 <path fill="rgb(87,157,28)" stroke="none" d="M 3344,10207 L 3594,10207 3469,9957 3344,10207 Z"/>
 <path fill="none" stroke="rgb(87,157,28)" stroke-linejoin="round" d="M 3344,10207 L 3594,10207 3469,9957 3344,10207 Z"/>
 <path fill="rgb(87,157,28)" stroke="none" d="M 4350,6241 L 4600,6241 4475,5991 4350,6241 Z"/>
 <path fill="none" stroke="rgb(87,157,28)" stroke-linejoin="round" d="M 4350,6241 L 4600,6241 4475,5991 4350,6241 Z"/>
 <path fill="rgb(87,157,28)" stroke="none" d="M 5357,2465 L 5607,2465 5482,2215 5357,2465 Z"/>
 <path fill="none" stroke="rgb(87,157,28)" stroke-linejoin="round" d="M 5357,2465 L 5607,2465 5482,2215 5357,2465 Z"/>
 <path fill="none" stroke="rgb(126,0,33)" stroke-width="80" stroke-linejoin="round" d="M 2463,9556 L 3469,7743 4475,6955 5482,6304 6488,6075 7494,5762 8501,5604 9506,5324 10512,5230 11519,5021 12525,4927 13532,4723"/>
 <path fill="rgb(126,0,33)" stroke="none" d="M 2338,9431 L 2338,9681 2588,9556 2338,9431 Z"/>
 <path fill="none" stroke="rgb(126,0,33)" stroke-linejoin="round" d="M 2338,9431 L 2338,9681 2588,9556 2338,9431 Z"/>
 <path fill="rgb(126,0,33)" stroke="none" d="M 3344,7618 L 3344,7868 3594,7743 3344,7618 Z"/>
 <path fill="none" stroke="rgb(126,0,33)" stroke-linejoin="round" d="M 3344,7618 L 3344,7868 3594,7743 3344,7618 Z"/>
 <path fill="rgb(126,0,33)" stroke="none" d="M 4350,6830 L 4350,7080 4600,6955 4350,6830 Z"/>
 <path fill="none" stroke="rgb(126,0,33)" stroke-linejoin="round" d="M 4350,6830 L 4350,7080 4600,6955 4350,6830 Z"/>
 <path fill="rgb(126,0,33)" stroke="none" d="M 5357,6179 L 5357,6429 5607,6304 5357,6179 Z"/>
 <path fill="none" stroke="rgb(126,0,33)" stroke-linejoin="round" d="M 5357,6179 L 5357,6429 5607,6304 5357,6179 Z"/>
 <path fill="rgb(126,0,33)" stroke="none" d="M 6363,5950 L 6363,6200 6613,6075 6363,5950 Z"/>
 <path fill="none" stroke="rgb(126,0,33)" stroke-linejoin="round" d="M 6363,5950 L 6363,6200 6613,6075 6363,5950 Z"/>
 <path fill="rgb(126,0,33)" stroke="none" d="M 7369,5637 L 7369,5887 7619,5762 7369,5637 Z"/>
 <path fill="none" stroke="rgb(126,0,33)" stroke-linejoin="round" d="M 7369,5637 L 7369,5887 7619,5762 7369,5637 Z"/>
 <path fill="rgb(126,0,33)" stroke="none" d="M 8376,5479 L 8376,5729 8626,5604 8376,5479 Z"/>
 <path fill="none" stroke="rgb(126,0,33)" stroke-linejoin="round" d="M 8376,5479 L 8376,5729 8626,5604 8376,5479 Z"/>
 <path fill="rgb(126,0,33)" stroke="none" d="M 9381,5199 L 9381,5449 9631,5324 9381,5199 Z"/>
 <path fill="none" stroke="rgb(126,0,33)" stroke-linejoin="round" d="M 9381,5199 L 9381,5449 9631,5324 9381,5199 Z"/>
 <path fill="rgb(126,0,33)" stroke="none" d="M 10387,5105 L 10387,5355 10637,5230 10387,5105 Z"/>
 <path fill="none" stroke="rgb(126,0,33)" stroke-linejoin="round" d="M 10387,5105 L 10387,5355 10637,5230 10387,5105 Z"/>
 <path fill="rgb(126,0,33)" stroke="none" d="M 11394,4896 L 11394,5146 11644,5021 11394,4896 Z"/>
 <path fill="none" stroke="rgb(126,0,33)" stroke-linejoin="round" d="M 11394,4896 L 11394,5146 11644,5021 11394,4896 Z"/>
 <path fill="rgb(126,0,33)" stroke="none" d="M 12400,4802 L 12400,5052 12650,4927 12400,4802 Z"/>
 <path fill="none" stroke="rgb(126,0,33)" stroke-linejoin="round" d="M 12400,4802 L 12400,5052 12650,4927 12400,4802 Z"/>
 <path fill="rgb(126,0,33)" stroke="none" d="M 13407,4598 L 13407,4848 13657,4723 13407,4598 Z"/>
 <path fill="none" stroke="rgb(126,0,33)" stroke-linejoin="round" d="M 13407,4598 L 13407,4848 13657,4723 13407,4598 Z"/>
 <path fill="none" stroke="rgb(131,202,255)" stroke-width="80" stroke-linejoin="round" d="M 2463,11127 L 3469,8522 4475,6971 5482,6309 6488,6083 7494,5765 8501,5606 9506,5333 10512,5232 11519,5026 12525,4924 13532,4730"/>
 <path fill="rgb(131,202,255)" stroke="none" d="M 2338,11127 L 2588,11252 2588,11002 2338,11127 Z"/>
 <path fill="none" stroke="rgb(131,202,255)" stroke-linejoin="round" d="M 2338,11127 L 2588,11252 2588,11002 2338,11127 Z"/>
 <path fill="rgb(131,202,255)" stroke="none" d="M 3344,8522 L 3594,8647 3594,8397 3344,8522 Z"/>
 <path fill="none" stroke="rgb(131,202,255)" stroke-linejoin="round" d="M 3344,8522 L 3594,8647 3594,8397 3344,8522 Z"/>
 <path fill="rgb(131,202,255)" stroke="none" d="M 4350,6971 L 4600,7096 4600,6846 4350,6971 Z"/>
 <path fill="none" stroke="rgb(131,202,255)" stroke-linejoin="round" d="M 4350,6971 L 4600,7096 4600,6846 4350,6971 Z"/>
 <path fill="rgb(131,202,255)" stroke="none" d="M 5357,6309 L 5607,6434 5607,6184 5357,6309 Z"/>
 <path fill="none" stroke="rgb(131,202,255)" stroke-linejoin="round" d="M 5357,6309 L 5607,6434 5607,6184 5357,6309 Z"/>
 <path fill="rgb(131,202,255)" stroke="none" d="M 6363,6083 L 6613,6208 6613,5958 6363,6083 Z"/>
 <path fill="none" stroke="rgb(131,202,255)" stroke-linejoin="round" d="M 6363,6083 L 6613,6208 6613,5958 6363,6083 Z"/>
 <path fill="rgb(131,202,255)" stroke="none" d="M 7369,5765 L 7619,5890 7619,5640 7369,5765 Z"/>
 <path fill="none" stroke="rgb(131,202,255)" stroke-linejoin="round" d="M 7369,5765 L 7619,5890 7619,5640 7369,5765 Z"/>
 <path fill="rgb(131,202,255)" stroke="none" d="M 8376,5606 L 8626,5731 8626,5481 8376,5606 Z"/>
 <path fill="none" stroke="rgb(131,202,255)" stroke-linejoin="round" d="M 8376,5606 L 8626,5731 8626,5481 8376,5606 Z"/>
 <path fill="rgb(131,202,255)" stroke="none" d="M 9381,5333 L 9631,5458 9631,5208 9381,5333 Z"/>
 <path fill="none" stroke="rgb(131,202,255)" stroke-linejoin="round" d="M 9381,5333 L 9631,5458 9631,5208 9381,5333 Z"/>
 <path fill="rgb(131,202,255)" stroke="none" d="M 10387,5232 L 10637,5357 10637,5107 10387,5232 Z"/>
 <path fill="none" stroke="rgb(131,202,255)" stroke-linejoin="round" d="M 10387,5232 L 10637,5357 10637,5107 10387,5232 Z"/>
 <path fill="rgb(131,202,255)" stroke="none" d="M 11394,5026 L 11644,5151 11644,4901 11394,5026 Z"/>
 <path fill="none" stroke="rgb(131,202,255)" stroke-linejoin="round" d="M 11394,5026 L 11644,5151 11644,4901 11394,5026 Z"/>
 <path fill="rgb(131,202,255)" stroke="none" d="M 12400,4924 L 12650,5049 12650,4799 12400,4924 Z"/>
 <path fill="none" stroke="rgb(131,202,255)" stroke-linejoin="round" d="M 12400,4924 L 12650,5049 12650,4799 12400,4924 Z"/>
 <path fill="rgb(131,202,255)" stroke="none" d="M 13407,4730 L 13657,4855 13657,4605 13407,4730 Z"/>
 <path fill="none" stroke="rgb(131,202,255)" stroke-linejoin="round" d="M 13407,4730 L 13657,4855 13657,4605 13407,4730 Z"/>
 <path fill="none" stroke="rgb(49,64,4)" stroke-width="80" stroke-linejoin="round" d="M 2463,11785 L 3469,9303 4475,8183 5482,7087 6488,6877 7494,6544 8501,6411 9506,5982 10512,5229 11519,5026 12525,4930 13532,4730"/>
 <path fill="rgb(49,64,4)" stroke="none" d="M 2338,11660 L 2338,11910 2588,11660 2588,11910 2338,11660 Z"/>
 <path fill="none" stroke="rgb(49,64,4)" stroke-linejoin="round" d="M 2338,11660 L 2338,11910 2588,11660 2588,11910 2338,11660 Z"/>
 <path fill="rgb(49,64,4)" stroke="none" d="M 3344,9178 L 3344,9428 3594,9178 3594,9428 3344,9178 Z"/>
 <path fill="none" stroke="rgb(49,64,4)" stroke-linejoin="round" d="M 3344,9178 L 3344,9428 3594,9178 3594,9428 3344,9178 Z"/>
 <path fill="rgb(49,64,4)" stroke="none" d="M 4350,8058 L 4350,8308 4600,8058 4600,8308 4350,8058 Z"/>
 <path fill="none" stroke="rgb(49,64,4)" stroke-linejoin="round" d="M 4350,8058 L 4350,8308 4600,8058 4600,8308 4350,8058 Z"/>
 <path fill="rgb(49,64,4)" stroke="none" d="M 5357,6962 L 5357,7212 5607,6962 5607,7212 5357,6962 Z"/>
 <path fill="none" stroke="rgb(49,64,4)" stroke-linejoin="round" d="M 5357,6962 L 5357,7212 5607,6962 5607,7212 5357,6962 Z"/>
 <path fill="rgb(49,64,4)" stroke="none" d="M 6363,6752 L 6363,7002 6613,6752 6613,7002 6363,6752 Z"/>
 <path fill="none" stroke="rgb(49,64,4)" stroke-linejoin="round" d="M 6363,6752 L 6363,7002 6613,6752 6613,7002 6363,6752 Z"/>
 <path fill="rgb(49,64,4)" stroke="none" d="M 7369,6419 L 7369,6669 7619,6419 7619,6669 7369,6419 Z"/>
 <path fill="none" stroke="rgb(49,64,4)" stroke-linejoin="round" d="M 7369,6419 L 7369,6669 7619,6419 7619,6669 7369,6419 Z"/>
 <path fill="rgb(49,64,4)" stroke="none" d="M 8376,6286 L 8376,6536 8626,6286 8626,6536 8376,6286 Z"/>
 <path fill="none" stroke="rgb(49,64,4)" stroke-linejoin="round" d="M 8376,6286 L 8376,6536 8626,6286 8626,6536 8376,6286 Z"/>
 <path fill="rgb(49,64,4)" stroke="none" d="M 9381,5857 L 9381,6107 9631,5857 9631,6107 9381,5857 Z"/>
 <path fill="none" stroke="rgb(49,64,4)" stroke-linejoin="round" d="M 9381,5857 L 9381,6107 9631,5857 9631,6107 9381,5857 Z"/>
 <path fill="rgb(49,64,4)" stroke="none" d="M 10387,5104 L 10387,5354 10637,5104 10637,5354 10387,5104 Z"/>
 <path fill="none" stroke="rgb(49,64,4)" stroke-linejoin="round" d="M 10387,5104 L 10387,5354 10637,5104 10637,5354 10387,5104 Z"/>
 <path fill="rgb(49,64,4)" stroke="none" d="M 11394,4901 L 11394,5151 11644,4901 11644,5151 11394,4901 Z"/>
 <path fill="none" stroke="rgb(49,64,4)" stroke-linejoin="round" d="M 11394,4901 L 11394,5151 11644,4901 11644,5151 11394,4901 Z"/>
 <path fill="rgb(49,64,4)" stroke="none" d="M 12400,4805 L 12400,5055 12650,4805 12650,5055 12400,4805 Z"/>
 <path fill="none" stroke="rgb(49,64,4)" stroke-linejoin="round" d="M 12400,4805 L 12400,5055 12650,4805 12650,5055 12400,4805 Z"/>
 <path fill="rgb(49,64,4)" stroke="none" d="M 13407,4605 L 13407,4855 13657,4605 13657,4855 13407,4605 Z"/>
 <path fill="none" stroke="rgb(49,64,4)" stroke-linejoin="round" d="M 13407,4605 L 13407,4855 13657,4605 13657,4855 13407,4605 Z"/>
 <path fill="none" stroke="rgb(174,207,0)" stroke-width="80" stroke-linejoin="round" d="M 2463,12509 L 3469,9934 4475,8797 5482,7841 6488,7620 7494,7315 8501,7180 9506,6769 10512,6039 11519,5819 12525,5703 13532,5502"/>
 <path fill="rgb(174,207,0)" stroke="none" d="M 2338,12634 L 2588,12634 2338,12384 2588,12384 2338,12634 Z"/>
 <path fill="none" stroke="rgb(174,207,0)" stroke-linejoin="round" d="M 2338,12634 L 2588,12634 2338,12384 2588,12384 2338,12634 Z"/>
 <path fill="rgb(174,207,0)" stroke="none" d="M 3344,10059 L 3594,10059 3344,9809 3594,9809 3344,10059 Z"/>
 <path fill="none" stroke="rgb(174,207,0)" stroke-linejoin="round" d="M 3344,10059 L 3594,10059 3344,9809 3594,9809 3344,10059 Z"/>
 <path fill="rgb(174,207,0)" stroke="none" d="M 4350,8922 L 4600,8922 4350,8672 4600,8672 4350,8922 Z"/>
 <path fill="none" stroke="rgb(174,207,0)" stroke-linejoin="round" d="M 4350,8922 L 4600,8922 4350,8672 4600,8672 4350,8922 Z"/>
 <path fill="rgb(174,207,0)" stroke="none" d="M 5357,7966 L 5607,7966 5357,7716 5607,7716 5357,7966 Z"/>
 <path fill="none" stroke="rgb(174,207,0)" stroke-linejoin="round" d="M 5357,7966 L 5607,7966 5357,7716 5607,7716 5357,7966 Z"/>
 <path fill="rgb(174,207,0)" stroke="none" d="M 6363,7745 L 6613,7745 6363,7495 6613,7495 6363,7745 Z"/>
 <path fill="none" stroke="rgb(174,207,0)" stroke-linejoin="round" d="M 6363,7745 L 6613,7745 6363,7495 6613,7495 6363,7745 Z"/>
 <path fill="rgb(174,207,0)" stroke="none" d="M 7369,7440 L 7619,7440 7369,7190 7619,7190 7369,7440 Z"/>
 <path fill="none" stroke="rgb(174,207,0)" stroke-linejoin="round" d="M 7369,7440 L 7619,7440 7369,7190 7619,7190 7369,7440 Z"/>
 <path fill="rgb(174,207,0)" stroke="none" d="M 8376,7305 L 8626,7305 8376,7055 8626,7055 8376,7305 Z"/>
 <path fill="none" stroke="rgb(174,207,0)" stroke-linejoin="round" d="M 8376,7305 L 8626,7305 8376,7055 8626,7055 8376,7305 Z"/>
 <path fill="rgb(174,207,0)" stroke="none" d="M 9381,6894 L 9631,6894 9381,6644 9631,6644 9381,6894 Z"/>
 <path fill="none" stroke="rgb(174,207,0)" stroke-linejoin="round" d="M 9381,6894 L 9631,6894 9381,6644 9631,6644 9381,6894 Z"/>
 <path fill="rgb(174,207,0)" stroke="none" d="M 10387,6164 L 10637,6164 10387,5914 10637,5914 10387,6164 Z"/>
 <path fill="none" stroke="rgb(174,207,0)" stroke-linejoin="round" d="M 10387,6164 L 10637,6164 10387,5914 10637,5914 10387,6164 Z"/>
 <path fill="rgb(174,207,0)" stroke="none" d="M 11394,5944 L 11644,5944 11394,5694 11644,5694 11394,5944 Z"/>
 <path fill="none" stroke="rgb(174,207,0)" stroke-linejoin="round" d="M 11394,5944 L 11644,5944 11394,5694 11644,5694 11394,5944 Z"/>
 <path fill="rgb(174,207,0)" stroke="none" d="M 12400,5828 L 12650,5828 12400,5578 12650,5578 12400,5828 Z"/>
 <path fill="none" stroke="rgb(174,207,0)" stroke-linejoin="round" d="M 12400,5828 L 12650,5828 12400,5578 12650,5578 12400,5828 Z"/>
 <path fill="rgb(174,207,0)" stroke="none" d="M 13407,5627 L 13657,5627 13407,5377 13657,5377 13407,5627 Z"/>
 <path fill="none" stroke="rgb(174,207,0)" stroke-linejoin="round" d="M 13407,5627 L 13657,5627 13407,5377 13657,5377 13407,5627 Z"/>
 <path fill="none" stroke="rgb(75,31,111)" stroke-width="80" stroke-linejoin="round" d="M 2463,12498 L 3469,10387 4475,9289 5482,8592 6488,8150 7494,7325 8501,7187 9506,6912 10512,6821 11519,6610 12525,6511 13532,6313"/>
 <path fill="rgb(75,31,111)" stroke="none" d="M 2588,12498 L 2587,12493 2587,12488 2586,12482 2586,12477 2585,12471 2583,12466 2582,12461 2580,12456 2578,12451 2576,12446 2573,12441 2571,12436 2568,12431 2565,12427 2562,12422 2558,12418 2555,12414 2551,12410 2547,12406 2543,12403 2539,12399 2534,12396 2530,12393 2525,12390 2520,12388 2515,12385 2510,12383 2505,12381 2500,12379 2495,12378 2490,12376 2484,12375 2479,12375 2473,12374 2468,12374 2463,12373 2457,12374 2452,12374 2446,12375 2441,12375 2435,12376 2430,12378 2425,12379 2420,12381 2415,12383 2410,12385 2405,12388 2400,12390 2395,12393 2391,12396 2386,12399 2382,12403 2378,12406 2374,12410 2370,12414 2367,12418 2363,12422 2360,12427 2357,12431 2354,12436 2352,12441 2349,12446 2347,12451 2345,12456 2343,12461 2342,12466 2340,12471 2339,12477 2339,12482 2338,12488 2338,12493 2338,12498 2338,12504 2338,12509 2339,12515 2339,12520 2340,12526 2342,12531 2343,12536 2345,12541 2347,12546 2349,12551 2352,12556 2354,12561 2357,12566 2360,12570 2363,12575 2367,12579 2370,12583 2374,12587 2378,12591 2382,12594 2386,12598 2391,12601 2395,12604 2400,12607 2405,12609 2410,12612 2415,12614 2420,12616 2425,12618 2430,12619 2435,12620 2441,12622 2446,12622 2452,12623 2457,12623 2463,12623 2468,12623 2473,12623 2479,12622 2484,12622 2490,12620 2495,12619 2500,12618 2505,12616 2510,12614 2515,12612 2520,12609 2525,12607 2530,12604 2534,12601 2539,12598 2543,12594 2547,12591 2551,12587 2555,12583 2558,12579 2562,12575 2565,12570 2568,12566 2571,12561 2573,12556 2576,12551 2578,12546 2580,12541 2582,12536 2583,12531 2585,12526 2586,12520 2586,12515 2587,12509 2587,12504 2588,12498 Z"/>
 <path fill="none" stroke="rgb(75,31,111)" stroke-linejoin="round" d="M 2588,12498 L 2587,12493 2587,12488 2586,12482 2586,12477 2585,12471 2583,12466 2582,12461 2580,12456 2578,12451 2576,12446 2573,12441 2571,12436 2568,12431 2565,12427 2562,12422 2558,12418 2555,12414 2551,12410 2547,12406 2543,12403 2539,12399 2534,12396 2530,12393 2525,12390 2520,12388 2515,12385 2510,12383 2505,12381 2500,12379 2495,12378 2490,12376 2484,12375 2479,12375 2473,12374 2468,12374 2463,12373 2457,12374 2452,12374 2446,12375 2441,12375 2435,12376 2430,12378 2425,12379 2420,12381 2415,12383 2410,12385 2405,12388 2400,12390 2395,12393 2391,12396 2386,12399 2382,12403 2378,12406 2374,12410 2370,12414 2367,12418 2363,12422 2360,12427 2357,12431 2354,12436 2352,12441 2349,12446 2347,12451 2345,12456 2343,12461 2342,12466 2340,12471 2339,12477 2339,12482 2338,12488 2338,12493 2338,12498 2338,12504 2338,12509 2339,12515 2339,12520 2340,12526 2342,12531 2343,12536 2345,12541 2347,12546 2349,12551 2352,12556 2354,12561 2357,12566 2360,12570 2363,12575 2367,12579 2370,12583 2374,12587 2378,12591 2382,12594 2386,12598 2391,12601 2395,12604 2400,12607 2405,12609 2410,12612 2415,12614 2420,12616 2425,12618 2430,12619 2435,12620 2441,12622 2446,12622 2452,12623 2457,12623 2463,12623 2468,12623 2473,12623 2479,12622 2484,12622 2490,12620 2495,12619 2500,12618 2505,12616 2510,12614 2515,12612 2520,12609 2525,12607 2530,12604 2534,12601 2539,12598 2543,12594 2547,12591 2551,12587 2555,12583 2558,12579 2562,12575 2565,12570 2568,12566 2571,12561 2573,12556 2576,12551 2578,12546 2580,12541 2582,12536 2583,12531 2585,12526 2586,12520 2586,12515 2587,12509 2587,12504 2588,12498 Z"/>
 <path fill="rgb(75,31,111)" stroke="none" d="M 3594,10387 L 3594,10381 3593,10376 3593,10370 3592,10365 3591,10360 3590,10354 3588,10349 3586,10344 3584,10339 3582,10334 3580,10329 3577,10324 3574,10320 3571,10315 3568,10311 3565,10306 3561,10302 3557,10298 3553,10295 3549,10291 3545,10288 3541,10284 3536,10281 3531,10279 3527,10276 3522,10273 3517,10271 3512,10269 3506,10268 3501,10266 3496,10265 3491,10264 3485,10263 3480,10262 3474,10262 3469,10262 3463,10262 3458,10262 3453,10263 3447,10264 3442,10265 3437,10266 3431,10268 3426,10269 3421,10271 3416,10273 3411,10276 3406,10279 3402,10281 3397,10284 3393,10288 3389,10291 3384,10295 3380,10298 3377,10302 3373,10306 3370,10311 3366,10315 3363,10320 3361,10324 3358,10329 3356,10334 3353,10339 3351,10344 3350,10349 3348,10354 3347,10360 3346,10365 3345,10370 3344,10376 3344,10381 3344,10387 3344,10392 3344,10398 3345,10403 3346,10408 3347,10414 3348,10419 3350,10424 3351,10430 3353,10435 3356,10440 3358,10444 3361,10449 3363,10454 3366,10458 3370,10463 3373,10467 3377,10471 3380,10475 3384,10479 3389,10483 3393,10486 3397,10489 3402,10492 3406,10495 3411,10498 3416,10500 3421,10502 3426,10504 3431,10506 3437,10508 3442,10509 3447,10510 3453,10511 3458,10511 3463,10512 3469,10512 3474,10512 3480,10511 3485,10511 3491,10510 3496,10509 3501,10508 3506,10506 3512,10504 3517,10502 3522,10500 3527,10498 3531,10495 3536,10492 3541,10489 3545,10486 3549,10483 3553,10479 3557,10475 3561,10471 3565,10467 3568,10463 3571,10458 3574,10454 3577,10449 3580,10444 3582,10440 3584,10435 3586,10430 3588,10424 3590,10419 3591,10414 3592,10408 3593,10403 3593,10398 3594,10392 3594,10387 Z"/>
 <path fill="none" stroke="rgb(75,31,111)" stroke-linejoin="round" d="M 3594,10387 L 3594,10381 3593,10376 3593,10370 3592,10365 3591,10360 3590,10354 3588,10349 3586,10344 3584,10339 3582,10334 3580,10329 3577,10324 3574,10320 3571,10315 3568,10311 3565,10306 3561,10302 3557,10298 3553,10295 3549,10291 3545,10288 3541,10284 3536,10281 3531,10279 3527,10276 3522,10273 3517,10271 3512,10269 3506,10268 3501,10266 3496,10265 3491,10264 3485,10263 3480,10262 3474,10262 3469,10262 3463,10262 3458,10262 3453,10263 3447,10264 3442,10265 3437,10266 3431,10268 3426,10269 3421,10271 3416,10273 3411,10276 3406,10279 3402,10281 3397,10284 3393,10288 3389,10291 3384,10295 3380,10298 3377,10302 3373,10306 3370,10311 3366,10315 3363,10320 3361,10324 3358,10329 3356,10334 3353,10339 3351,10344 3350,10349 3348,10354 3347,10360 3346,10365 3345,10370 3344,10376 3344,10381 3344,10387 3344,10392 3344,10398 3345,10403 3346,10408 3347,10414 3348,10419 3350,10424 3351,10430 3353,10435 3356,10440 3358,10444 3361,10449 3363,10454 3366,10458 3370,10463 3373,10467 3377,10471 3380,10475 3384,10479 3389,10483 3393,10486 3397,10489 3402,10492 3406,10495 3411,10498 3416,10500 3421,10502 3426,10504 3431,10506 3437,10508 3442,10509 3447,10510 3453,10511 3458,10511 3463,10512 3469,10512 3474,10512 3480,10511 3485,10511 3491,10510 3496,10509 3501,10508 3506,10506 3512,10504 3517,10502 3522,10500 3527,10498 3531,10495 3536,10492 3541,10489 3545,10486 3549,10483 3553,10479 3557,10475 3561,10471 3565,10467 3568,10463 3571,10458 3574,10454 3577,10449 3580,10444 3582,10440 3584,10435 3586,10430 3588,10424 3590,10419 3591,10414 3592,10408 3593,10403 3593,10398 3594,10392 3594,10387 Z"/>
 <path fill="rgb(75,31,111)" stroke="none" d="M 4600,9289 L 4600,9284 4600,9278 4599,9273 4598,9267 4597,9262 4596,9257 4594,9251 4593,9246 4591,9241 4589,9236 4586,9231 4583,9226 4581,9222 4578,9217 4574,9213 4571,9209 4567,9205 4564,9201 4560,9197 4556,9193 4551,9190 4547,9187 4542,9184 4538,9181 4533,9178 4528,9176 4523,9173 4518,9172 4513,9170 4508,9168 4502,9167 4497,9166 4492,9165 4486,9164 4481,9164 4475,9164 4470,9164 4464,9164 4459,9165 4454,9166 4448,9167 4443,9168 4438,9170 4432,9172 4427,9173 4422,9176 4418,9178 4413,9181 4408,9184 4404,9187 4399,9190 4395,9193 4391,9197 4387,9201 4383,9205 4379,9209 4376,9213 4373,9217 4370,9222 4367,9226 4364,9231 4362,9236 4360,9241 4358,9246 4356,9251 4354,9257 4353,9262 4352,9267 4351,9273 4351,9278 4350,9284 4350,9289 4350,9294 4351,9300 4351,9305 4352,9311 4353,9316 4354,9321 4356,9327 4358,9332 4360,9337 4362,9342 4364,9347 4367,9351 4370,9356 4373,9361 4376,9365 4379,9369 4383,9373 4387,9377 4391,9381 4395,9385 4399,9388 4404,9391 4408,9394 4413,9397 4418,9400 4422,9402 4427,9404 4432,9406 4438,9408 4443,9410 4448,9411 4454,9412 4459,9413 4464,9413 4470,9414 4475,9414 4481,9414 4486,9413 4492,9413 4497,9412 4502,9411 4508,9410 4513,9408 4518,9406 4523,9404 4528,9402 4533,9400 4538,9397 4542,9394 4547,9391 4551,9388 4556,9385 4560,9381 4564,9377 4567,9373 4571,9369 4574,9365 4578,9361 4581,9356 4583,9351 4586,9347 4589,9342 4591,9337 4593,9332 4594,9327 4596,9321 4597,9316 4598,9311 4599,9305 4600,9300 4600,9294 4600,9289 Z"/>
 <path fill="none" stroke="rgb(75,31,111)" stroke-linejoin="round" d="M 4600,9289 L 4600,9284 4600,9278 4599,9273 4598,9267 4597,9262 4596,9257 4594,9251 4593,9246 4591,9241 4589,9236 4586,9231 4583,9226 4581,9222 4578,9217 4574,9213 4571,9209 4567,9205 4564,9201 4560,9197 4556,9193 4551,9190 4547,9187 4542,9184 4538,9181 4533,9178 4528,9176 4523,9173 4518,9172 4513,9170 4508,9168 4502,9167 4497,9166 4492,9165 4486,9164 4481,9164 4475,9164 4470,9164 4464,9164 4459,9165 4454,9166 4448,9167 4443,9168 4438,9170 4432,9172 4427,9173 4422,9176 4418,9178 4413,9181 4408,9184 4404,9187 4399,9190 4395,9193 4391,9197 4387,9201 4383,9205 4379,9209 4376,9213 4373,9217 4370,9222 4367,9226 4364,9231 4362,9236 4360,9241 4358,9246 4356,9251 4354,9257 4353,9262 4352,9267 4351,9273 4351,9278 4350,9284 4350,9289 4350,9294 4351,9300 4351,9305 4352,9311 4353,9316 4354,9321 4356,9327 4358,9332 4360,9337 4362,9342 4364,9347 4367,9351 4370,9356 4373,9361 4376,9365 4379,9369 4383,9373 4387,9377 4391,9381 4395,9385 4399,9388 4404,9391 4408,9394 4413,9397 4418,9400 4422,9402 4427,9404 4432,9406 4438,9408 4443,9410 4448,9411 4454,9412 4459,9413 4464,9413 4470,9414 4475,9414 4481,9414 4486,9413 4492,9413 4497,9412 4502,9411 4508,9410 4513,9408 4518,9406 4523,9404 4528,9402 4533,9400 4538,9397 4542,9394 4547,9391 4551,9388 4556,9385 4560,9381 4564,9377 4567,9373 4571,9369 4574,9365 4578,9361 4581,9356 4583,9351 4586,9347 4589,9342 4591,9337 4593,9332 4594,9327 4596,9321 4597,9316 4598,9311 4599,9305 4600,9300 4600,9294 4600,9289 Z"/>
 <path fill="rgb(75,31,111)" stroke="none" d="M 5607,8592 L 5606,8586 5606,8581 5606,8575 5605,8570 5604,8565 5602,8559 5601,8554 5599,8549 5597,8544 5595,8539 5592,8534 5590,8529 5587,8525 5584,8520 5581,8516 5577,8511 5574,8507 5570,8503 5566,8500 5562,8496 5558,8493 5553,8489 5549,8486 5544,8483 5539,8481 5534,8478 5529,8476 5524,8474 5519,8473 5514,8471 5509,8470 5503,8469 5498,8468 5492,8467 5487,8467 5482,8467 5476,8467 5471,8467 5465,8468 5460,8469 5455,8470 5449,8471 5444,8473 5439,8474 5434,8476 5429,8478 5424,8481 5419,8483 5414,8486 5410,8489 5405,8493 5401,8496 5397,8500 5393,8503 5389,8507 5386,8511 5382,8516 5379,8520 5376,8525 5373,8529 5371,8534 5368,8539 5366,8544 5364,8549 5362,8554 5361,8559 5360,8565 5358,8570 5358,8575 5357,8581 5357,8586 5357,8592 5357,8597 5357,8603 5358,8608 5358,8613 5360,8619 5361,8624 5362,8629 5364,8634 5366,8640 5368,8645 5371,8649 5373,8654 5376,8659 5379,8663 5382,8668 5386,8672 5389,8676 5393,8680 5397,8684 5401,8687 5405,8691 5410,8694 5414,8697 5419,8700 5424,8703 5429,8705 5434,8707 5439,8709 5444,8711 5449,8712 5455,8714 5460,8715 5465,8716 5471,8716 5476,8717 5482,8717 5487,8717 5492,8716 5498,8716 5503,8715 5509,8714 5514,8712 5519,8711 5524,8709 5529,8707 5534,8705 5539,8703 5544,8700 5549,8697 5553,8694 5558,8691 5562,8687 5566,8684 5570,8680 5574,8676 5577,8672 5581,8668 5584,8663 5587,8659 5590,8654 5592,8649 5595,8645 5597,8640 5599,8634 5601,8629 5602,8624 5604,8619 5605,8613 5606,8608 5606,8603 5606,8597 5607,8592 Z"/>
 <path fill="none" stroke="rgb(75,31,111)" stroke-linejoin="round" d="M 5607,8592 L 5606,8586 5606,8581 5606,8575 5605,8570 5604,8565 5602,8559 5601,8554 5599,8549 5597,8544 5595,8539 5592,8534 5590,8529 5587,8525 5584,8520 5581,8516 5577,8511 5574,8507 5570,8503 5566,8500 5562,8496 5558,8493 5553,8489 5549,8486 5544,8483 5539,8481 5534,8478 5529,8476 5524,8474 5519,8473 5514,8471 5509,8470 5503,8469 5498,8468 5492,8467 5487,8467 5482,8467 5476,8467 5471,8467 5465,8468 5460,8469 5455,8470 5449,8471 5444,8473 5439,8474 5434,8476 5429,8478 5424,8481 5419,8483 5414,8486 5410,8489 5405,8493 5401,8496 5397,8500 5393,8503 5389,8507 5386,8511 5382,8516 5379,8520 5376,8525 5373,8529 5371,8534 5368,8539 5366,8544 5364,8549 5362,8554 5361,8559 5360,8565 5358,8570 5358,8575 5357,8581 5357,8586 5357,8592 5357,8597 5357,8603 5358,8608 5358,8613 5360,8619 5361,8624 5362,8629 5364,8634 5366,8640 5368,8645 5371,8649 5373,8654 5376,8659 5379,8663 5382,8668 5386,8672 5389,8676 5393,8680 5397,8684 5401,8687 5405,8691 5410,8694 5414,8697 5419,8700 5424,8703 5429,8705 5434,8707 5439,8709 5444,8711 5449,8712 5455,8714 5460,8715 5465,8716 5471,8716 5476,8717 5482,8717 5487,8717 5492,8716 5498,8716 5503,8715 5509,8714 5514,8712 5519,8711 5524,8709 5529,8707 5534,8705 5539,8703 5544,8700 5549,8697 5553,8694 5558,8691 5562,8687 5566,8684 5570,8680 5574,8676 5577,8672 5581,8668 5584,8663 5587,8659 5590,8654 5592,8649 5595,8645 5597,8640 5599,8634 5601,8629 5602,8624 5604,8619 5605,8613 5606,8608 5606,8603 5606,8597 5607,8592 Z"/>
 <path fill="rgb(75,31,111)" stroke="none" d="M 6613,8150 L 6613,8144 6612,8139 6612,8134 6611,8128 6610,8123 6609,8118 6607,8112 6605,8107 6603,8102 6601,8097 6599,8092 6596,8087 6593,8083 6590,8078 6587,8074 6584,8070 6580,8066 6576,8062 6572,8058 6568,8054 6564,8051 6560,8048 6555,8045 6550,8042 6546,8039 6541,8037 6536,8034 6531,8032 6526,8031 6520,8029 6515,8028 6510,8027 6504,8026 6499,8025 6493,8025 6488,8025 6483,8025 6477,8025 6472,8026 6466,8027 6461,8028 6456,8029 6450,8031 6445,8032 6440,8034 6435,8037 6430,8039 6425,8042 6421,8045 6416,8048 6412,8051 6408,8054 6404,8058 6400,8062 6396,8066 6392,8070 6389,8074 6386,8078 6383,8083 6380,8087 6377,8092 6375,8097 6372,8102 6370,8107 6369,8112 6367,8118 6366,8123 6365,8128 6364,8134 6363,8139 6363,8144 6363,8150 6363,8155 6363,8161 6364,8166 6365,8172 6366,8177 6367,8182 6369,8188 6370,8193 6372,8198 6375,8203 6377,8208 6380,8212 6383,8217 6386,8222 6389,8226 6392,8230 6396,8234 6400,8238 6404,8242 6408,8246 6412,8249 6416,8252 6421,8255 6425,8258 6430,8261 6435,8263 6440,8265 6445,8267 6450,8269 6456,8271 6461,8272 6466,8273 6472,8274 6477,8274 6483,8275 6488,8275 6493,8275 6499,8274 6504,8274 6510,8273 6515,8272 6520,8271 6526,8269 6531,8267 6536,8265 6541,8263 6546,8261 6550,8258 6555,8255 6560,8252 6564,8249 6568,8246 6572,8242 6576,8238 6580,8234 6584,8230 6587,8226 6590,8222 6593,8217 6596,8212 6599,8208 6601,8203 6603,8198 6605,8193 6607,8188 6609,8182 6610,8177 6611,8172 6612,8166 6612,8161 6613,8155 6613,8150 Z"/>
 <path fill="none" stroke="rgb(75,31,111)" stroke-linejoin="round" d="M 6613,8150 L 6613,8144 6612,8139 6612,8134 6611,8128 6610,8123 6609,8118 6607,8112 6605,8107 6603,8102 6601,8097 6599,8092 6596,8087 6593,8083 6590,8078 6587,8074 6584,8070 6580,8066 6576,8062 6572,8058 6568,8054 6564,8051 6560,8048 6555,8045 6550,8042 6546,8039 6541,8037 6536,8034 6531,8032 6526,8031 6520,8029 6515,8028 6510,8027 6504,8026 6499,8025 6493,8025 6488,8025 6483,8025 6477,8025 6472,8026 6466,8027 6461,8028 6456,8029 6450,8031 6445,8032 6440,8034 6435,8037 6430,8039 6425,8042 6421,8045 6416,8048 6412,8051 6408,8054 6404,8058 6400,8062 6396,8066 6392,8070 6389,8074 6386,8078 6383,8083 6380,8087 6377,8092 6375,8097 6372,8102 6370,8107 6369,8112 6367,8118 6366,8123 6365,8128 6364,8134 6363,8139 6363,8144 6363,8150 6363,8155 6363,8161 6364,8166 6365,8172 6366,8177 6367,8182 6369,8188 6370,8193 6372,8198 6375,8203 6377,8208 6380,8212 6383,8217 6386,8222 6389,8226 6392,8230 6396,8234 6400,8238 6404,8242 6408,8246 6412,8249 6416,8252 6421,8255 6425,8258 6430,8261 6435,8263 6440,8265 6445,8267 6450,8269 6456,8271 6461,8272 6466,8273 6472,8274 6477,8274 6483,8275 6488,8275 6493,8275 6499,8274 6504,8274 6510,8273 6515,8272 6520,8271 6526,8269 6531,8267 6536,8265 6541,8263 6546,8261 6550,8258 6555,8255 6560,8252 6564,8249 6568,8246 6572,8242 6576,8238 6580,8234 6584,8230 6587,8226 6590,8222 6593,8217 6596,8212 6599,8208 6601,8203 6603,8198 6605,8193 6607,8188 6609,8182 6610,8177 6611,8172 6612,8166 6612,8161 6613,8155 6613,8150 Z"/>
 <path fill="rgb(75,31,111)" stroke="none" d="M 7619,7325 L 7619,7320 7619,7315 7618,7309 7617,7304 7616,7298 7615,7293 7614,7288 7612,7283 7610,7278 7608,7273 7605,7268 7603,7263 7600,7258 7597,7254 7593,7249 7590,7245 7586,7241 7583,7237 7579,7233 7575,7230 7570,7226 7566,7223 7561,7220 7557,7217 7552,7215 7547,7212 7542,7210 7537,7208 7532,7206 7527,7205 7521,7203 7516,7202 7511,7202 7505,7201 7500,7201 7494,7200 7489,7201 7483,7201 7478,7202 7473,7202 7467,7203 7462,7205 7457,7206 7452,7208 7446,7210 7441,7212 7437,7215 7432,7217 7427,7220 7423,7223 7418,7226 7414,7230 7410,7233 7406,7237 7402,7241 7399,7245 7395,7249 7392,7254 7389,7258 7386,7263 7383,7268 7381,7273 7379,7278 7377,7283 7375,7288 7374,7293 7372,7298 7371,7304 7370,7309 7370,7315 7369,7320 7369,7325 7369,7331 7370,7336 7370,7342 7371,7347 7372,7353 7374,7358 7375,7363 7377,7368 7379,7373 7381,7378 7383,7383 7386,7388 7389,7393 7392,7397 7395,7402 7399,7406 7402,7410 7406,7414 7410,7418 7414,7421 7418,7425 7423,7428 7427,7431 7432,7434 7437,7436 7441,7439 7446,7441 7452,7443 7457,7445 7462,7446 7467,7448 7473,7449 7478,7449 7483,7450 7489,7450 7494,7450 7500,7450 7505,7450 7511,7449 7516,7449 7521,7448 7527,7446 7532,7445 7537,7443 7542,7441 7547,7439 7552,7436 7557,7434 7561,7431 7566,7428 7570,7425 7575,7421 7579,7418 7583,7414 7586,7410 7590,7406 7593,7402 7597,7397 7600,7393 7603,7388 7605,7383 7608,7378 7610,7373 7612,7368 7614,7363 7615,7358 7616,7353 7617,7347 7618,7342 7619,7336 7619,7331 7619,7325 Z"/>
 <path fill="none" stroke="rgb(75,31,111)" stroke-linejoin="round" d="M 7619,7325 L 7619,7320 7619,7315 7618,7309 7617,7304 7616,7298 7615,7293 7614,7288 7612,7283 7610,7278 7608,7273 7605,7268 7603,7263 7600,7258 7597,7254 7593,7249 7590,7245 7586,7241 7583,7237 7579,7233 7575,7230 7570,7226 7566,7223 7561,7220 7557,7217 7552,7215 7547,7212 7542,7210 7537,7208 7532,7206 7527,7205 7521,7203 7516,7202 7511,7202 7505,7201 7500,7201 7494,7200 7489,7201 7483,7201 7478,7202 7473,7202 7467,7203 7462,7205 7457,7206 7452,7208 7446,7210 7441,7212 7437,7215 7432,7217 7427,7220 7423,7223 7418,7226 7414,7230 7410,7233 7406,7237 7402,7241 7399,7245 7395,7249 7392,7254 7389,7258 7386,7263 7383,7268 7381,7273 7379,7278 7377,7283 7375,7288 7374,7293 7372,7298 7371,7304 7370,7309 7370,7315 7369,7320 7369,7325 7369,7331 7370,7336 7370,7342 7371,7347 7372,7353 7374,7358 7375,7363 7377,7368 7379,7373 7381,7378 7383,7383 7386,7388 7389,7393 7392,7397 7395,7402 7399,7406 7402,7410 7406,7414 7410,7418 7414,7421 7418,7425 7423,7428 7427,7431 7432,7434 7437,7436 7441,7439 7446,7441 7452,7443 7457,7445 7462,7446 7467,7448 7473,7449 7478,7449 7483,7450 7489,7450 7494,7450 7500,7450 7505,7450 7511,7449 7516,7449 7521,7448 7527,7446 7532,7445 7537,7443 7542,7441 7547,7439 7552,7436 7557,7434 7561,7431 7566,7428 7570,7425 7575,7421 7579,7418 7583,7414 7586,7410 7590,7406 7593,7402 7597,7397 7600,7393 7603,7388 7605,7383 7608,7378 7610,7373 7612,7368 7614,7363 7615,7358 7616,7353 7617,7347 7618,7342 7619,7336 7619,7331 7619,7325 Z"/>
 <path fill="rgb(75,31,111)" stroke="none" d="M 8626,7187 L 8626,7181 8625,7176 8625,7170 8624,7165 8623,7160 8621,7154 8620,7149 8618,7144 8616,7139 8614,7134 8612,7129 8609,7124 8606,7120 8603,7115 8600,7111 8596,7106 8593,7102 8589,7098 8585,7095 8581,7091 8577,7088 8572,7084 8568,7081 8563,7078 8558,7076 8554,7073 8549,7071 8543,7069 8538,7068 8533,7066 8528,7065 8522,7064 8517,7063 8512,7062 8506,7062 8501,7062 8495,7062 8490,7062 8484,7063 8479,7064 8474,7065 8468,7066 8463,7068 8458,7069 8453,7071 8448,7073 8443,7076 8438,7078 8434,7081 8429,7084 8425,7088 8420,7091 8416,7095 8412,7098 8409,7102 8405,7106 8402,7111 8398,7115 8395,7120 8392,7124 8390,7129 8387,7134 8385,7139 8383,7144 8381,7149 8380,7154 8379,7160 8378,7165 8377,7170 8376,7176 8376,7181 8376,7187 8376,7192 8376,7198 8377,7203 8378,7208 8379,7214 8380,7219 8381,7224 8383,7230 8385,7235 8387,7240 8390,7244 8392,7249 8395,7254 8398,7258 8402,7263 8405,7267 8409,7271 8412,7275 8416,7279 8420,7283 8425,7286 8429,7289 8434,7292 8438,7295 8443,7298 8448,7300 8453,7302 8458,7304 8463,7306 8468,7307 8474,7309 8479,7310 8484,7311 8490,7311 8495,7312 8501,7312 8506,7312 8512,7311 8517,7311 8522,7310 8528,7309 8533,7307 8538,7306 8543,7304 8549,7302 8554,7300 8558,7298 8563,7295 8568,7292 8572,7289 8577,7286 8581,7283 8585,7279 8589,7275 8593,7271 8596,7267 8600,7263 8603,7258 8606,7254 8609,7249 8612,7244 8614,7240 8616,7235 8618,7230 8620,7224 8621,7219 8623,7214 8624,7208 8625,7203 8625,7198 8626,7192 8626,7187 Z"/>
 <path fill="none" stroke="rgb(75,31,111)" stroke-linejoin="round" d="M 8626,7187 L 8626,7181 8625,7176 8625,7170 8624,7165 8623,7160 8621,7154 8620,7149 8618,7144 8616,7139 8614,7134 8612,7129 8609,7124 8606,7120 8603,7115 8600,7111 8596,7106 8593,7102 8589,7098 8585,7095 8581,7091 8577,7088 8572,7084 8568,7081 8563,7078 8558,7076 8554,7073 8549,7071 8543,7069 8538,7068 8533,7066 8528,7065 8522,7064 8517,7063 8512,7062 8506,7062 8501,7062 8495,7062 8490,7062 8484,7063 8479,7064 8474,7065 8468,7066 8463,7068 8458,7069 8453,7071 8448,7073 8443,7076 8438,7078 8434,7081 8429,7084 8425,7088 8420,7091 8416,7095 8412,7098 8409,7102 8405,7106 8402,7111 8398,7115 8395,7120 8392,7124 8390,7129 8387,7134 8385,7139 8383,7144 8381,7149 8380,7154 8379,7160 8378,7165 8377,7170 8376,7176 8376,7181 8376,7187 8376,7192 8376,7198 8377,7203 8378,7208 8379,7214 8380,7219 8381,7224 8383,7230 8385,7235 8387,7240 8390,7244 8392,7249 8395,7254 8398,7258 8402,7263 8405,7267 8409,7271 8412,7275 8416,7279 8420,7283 8425,7286 8429,7289 8434,7292 8438,7295 8443,7298 8448,7300 8453,7302 8458,7304 8463,7306 8468,7307 8474,7309 8479,7310 8484,7311 8490,7311 8495,7312 8501,7312 8506,7312 8512,7311 8517,7311 8522,7310 8528,7309 8533,7307 8538,7306 8543,7304 8549,7302 8554,7300 8558,7298 8563,7295 8568,7292 8572,7289 8577,7286 8581,7283 8585,7279 8589,7275 8593,7271 8596,7267 8600,7263 8603,7258 8606,7254 8609,7249 8612,7244 8614,7240 8616,7235 8618,7230 8620,7224 8621,7219 8623,7214 8624,7208 8625,7203 8625,7198 8626,7192 8626,7187 Z"/>
 <path fill="rgb(75,31,111)" stroke="none" d="M 9631,6912 L 9631,6907 9631,6901 9630,6896 9629,6890 9628,6885 9627,6880 9625,6875 9624,6869 9622,6864 9619,6859 9617,6854 9614,6850 9611,6845 9608,6840 9605,6836 9602,6832 9598,6828 9594,6824 9590,6820 9586,6816 9582,6813 9578,6810 9573,6807 9569,6804 9564,6801 9559,6799 9554,6797 9549,6795 9544,6793 9538,6791 9533,6790 9528,6789 9522,6788 9517,6788 9511,6787 9506,6787 9501,6787 9495,6788 9490,6788 9484,6789 9479,6790 9474,6791 9468,6793 9463,6795 9458,6797 9453,6799 9448,6801 9444,6804 9439,6807 9434,6810 9430,6813 9426,6816 9422,6820 9418,6824 9414,6828 9410,6832 9407,6836 9404,6840 9401,6845 9398,6850 9395,6854 9393,6859 9391,6864 9389,6869 9387,6875 9385,6880 9384,6885 9383,6890 9382,6896 9382,6901 9381,6907 9381,6912 9381,6918 9382,6923 9382,6928 9383,6934 9384,6939 9385,6945 9387,6950 9389,6955 9391,6960 9393,6965 9395,6970 9398,6975 9401,6979 9404,6984 9407,6988 9410,6993 9414,6997 9418,7001 9422,7004 9426,7008 9430,7011 9434,7015 9439,7018 9444,7020 9448,7023 9453,7025 9458,7028 9463,7030 9468,7031 9474,7033 9479,7034 9484,7035 9490,7036 9495,7037 9501,7037 9506,7037 9511,7037 9517,7037 9522,7036 9528,7035 9533,7034 9538,7033 9544,7031 9549,7030 9554,7028 9559,7025 9564,7023 9569,7020 9573,7018 9578,7015 9582,7011 9586,7008 9590,7004 9594,7001 9598,6997 9602,6993 9605,6988 9608,6984 9611,6979 9614,6975 9617,6970 9619,6965 9622,6960 9624,6955 9625,6950 9627,6945 9628,6939 9629,6934 9630,6928 9631,6923 9631,6918 9631,6912 Z"/>
 <path fill="none" stroke="rgb(75,31,111)" stroke-linejoin="round" d="M 9631,6912 L 9631,6907 9631,6901 9630,6896 9629,6890 9628,6885 9627,6880 9625,6875 9624,6869 9622,6864 9619,6859 9617,6854 9614,6850 9611,6845 9608,6840 9605,6836 9602,6832 9598,6828 9594,6824 9590,6820 9586,6816 9582,6813 9578,6810 9573,6807 9569,6804 9564,6801 9559,6799 9554,6797 9549,6795 9544,6793 9538,6791 9533,6790 9528,6789 9522,6788 9517,6788 9511,6787 9506,6787 9501,6787 9495,6788 9490,6788 9484,6789 9479,6790 9474,6791 9468,6793 9463,6795 9458,6797 9453,6799 9448,6801 9444,6804 9439,6807 9434,6810 9430,6813 9426,6816 9422,6820 9418,6824 9414,6828 9410,6832 9407,6836 9404,6840 9401,6845 9398,6850 9395,6854 9393,6859 9391,6864 9389,6869 9387,6875 9385,6880 9384,6885 9383,6890 9382,6896 9382,6901 9381,6907 9381,6912 9381,6918 9382,6923 9382,6928 9383,6934 9384,6939 9385,6945 9387,6950 9389,6955 9391,6960 9393,6965 9395,6970 9398,6975 9401,6979 9404,6984 9407,6988 9410,6993 9414,6997 9418,7001 9422,7004 9426,7008 9430,7011 9434,7015 9439,7018 9444,7020 9448,7023 9453,7025 9458,7028 9463,7030 9468,7031 9474,7033 9479,7034 9484,7035 9490,7036 9495,7037 9501,7037 9506,7037 9511,7037 9517,7037 9522,7036 9528,7035 9533,7034 9538,7033 9544,7031 9549,7030 9554,7028 9559,7025 9564,7023 9569,7020 9573,7018 9578,7015 9582,7011 9586,7008 9590,7004 9594,7001 9598,6997 9602,6993 9605,6988 9608,6984 9611,6979 9614,6975 9617,6970 9619,6965 9622,6960 9624,6955 9625,6950 9627,6945 9628,6939 9629,6934 9630,6928 9631,6923 9631,6918 9631,6912 Z"/>
 <path fill="rgb(75,31,111)" stroke="none" d="M 10637,6821 L 10637,6815 10637,6810 10636,6804 10636,6799 10634,6794 10633,6788 10632,6783 10630,6778 10628,6773 10626,6768 10623,6763 10621,6758 10618,6754 10615,6749 10612,6745 10608,6740 10605,6736 10601,6732 10597,6729 10593,6725 10589,6722 10584,6718 10580,6715 10575,6713 10570,6710 10565,6707 10560,6705 10555,6703 10550,6702 10545,6700 10539,6699 10534,6698 10529,6697 10523,6696 10518,6696 10512,6696 10507,6696 10502,6696 10496,6697 10491,6698 10485,6699 10480,6700 10475,6702 10470,6703 10465,6705 10460,6707 10455,6710 10450,6713 10445,6715 10441,6718 10436,6722 10432,6725 10428,6729 10424,6732 10420,6736 10417,6740 10413,6745 10410,6749 10407,6754 10404,6758 10402,6763 10399,6768 10397,6773 10395,6778 10393,6783 10392,6788 10390,6794 10389,6799 10388,6804 10388,6810 10388,6815 10387,6821 10388,6826 10388,6832 10388,6837 10389,6842 10390,6848 10392,6853 10393,6858 10395,6864 10397,6869 10399,6874 10402,6878 10404,6883 10407,6888 10410,6892 10413,6897 10417,6901 10420,6905 10424,6909 10428,6913 10432,6917 10436,6920 10441,6923 10445,6926 10450,6929 10455,6932 10460,6934 10465,6936 10470,6938 10475,6940 10480,6942 10485,6943 10491,6944 10496,6945 10502,6945 10507,6946 10512,6946 10518,6946 10523,6945 10529,6945 10534,6944 10539,6943 10545,6942 10550,6940 10555,6938 10560,6936 10565,6934 10570,6932 10575,6929 10580,6926 10584,6923 10589,6920 10593,6917 10597,6913 10601,6909 10605,6905 10608,6901 10612,6897 10615,6892 10618,6888 10621,6883 10623,6878 10626,6874 10628,6869 10630,6864 10632,6858 10633,6853 10634,6848 10636,6842 10636,6837 10637,6832 10637,6826 10637,6821 Z"/>
 <path fill="none" stroke="rgb(75,31,111)" stroke-linejoin="round" d="M 10637,6821 L 10637,6815 10637,6810 10636,6804 10636,6799 10634,6794 10633,6788 10632,6783 10630,6778 10628,6773 10626,6768 10623,6763 10621,6758 10618,6754 10615,6749 10612,6745 10608,6740 10605,6736 10601,6732 10597,6729 10593,6725 10589,6722 10584,6718 10580,6715 10575,6713 10570,6710 10565,6707 10560,6705 10555,6703 10550,6702 10545,6700 10539,6699 10534,6698 10529,6697 10523,6696 10518,6696 10512,6696 10507,6696 10502,6696 10496,6697 10491,6698 10485,6699 10480,6700 10475,6702 10470,6703 10465,6705 10460,6707 10455,6710 10450,6713 10445,6715 10441,6718 10436,6722 10432,6725 10428,6729 10424,6732 10420,6736 10417,6740 10413,6745 10410,6749 10407,6754 10404,6758 10402,6763 10399,6768 10397,6773 10395,6778 10393,6783 10392,6788 10390,6794 10389,6799 10388,6804 10388,6810 10388,6815 10387,6821 10388,6826 10388,6832 10388,6837 10389,6842 10390,6848 10392,6853 10393,6858 10395,6864 10397,6869 10399,6874 10402,6878 10404,6883 10407,6888 10410,6892 10413,6897 10417,6901 10420,6905 10424,6909 10428,6913 10432,6917 10436,6920 10441,6923 10445,6926 10450,6929 10455,6932 10460,6934 10465,6936 10470,6938 10475,6940 10480,6942 10485,6943 10491,6944 10496,6945 10502,6945 10507,6946 10512,6946 10518,6946 10523,6945 10529,6945 10534,6944 10539,6943 10545,6942 10550,6940 10555,6938 10560,6936 10565,6934 10570,6932 10575,6929 10580,6926 10584,6923 10589,6920 10593,6917 10597,6913 10601,6909 10605,6905 10608,6901 10612,6897 10615,6892 10618,6888 10621,6883 10623,6878 10626,6874 10628,6869 10630,6864 10632,6858 10633,6853 10634,6848 10636,6842 10636,6837 10637,6832 10637,6826 10637,6821 Z"/>
 <path fill="rgb(75,31,111)" stroke="none" d="M 11644,6610 L 11644,6605 11643,6599 11643,6594 11642,6588 11641,6583 11640,6578 11638,6572 11636,6567 11634,6562 11632,6557 11630,6552 11627,6548 11624,6543 11621,6538 11618,6534 11615,6530 11611,6526 11607,6522 11603,6518 11599,6514 11595,6511 11590,6508 11586,6505 11581,6502 11576,6499 11572,6497 11567,6495 11562,6493 11556,6491 11551,6489 11546,6488 11540,6487 11535,6486 11530,6486 11524,6485 11519,6485 11513,6485 11508,6486 11502,6486 11497,6487 11492,6488 11486,6489 11481,6491 11476,6493 11471,6495 11466,6497 11461,6499 11456,6502 11452,6505 11447,6508 11443,6511 11438,6514 11434,6518 11430,6522 11427,6526 11423,6530 11420,6534 11416,6538 11413,6543 11411,6548 11408,6552 11405,6557 11403,6562 11401,6567 11400,6572 11398,6578 11397,6583 11396,6588 11395,6594 11394,6599 11394,6605 11394,6610 11394,6616 11394,6621 11395,6626 11396,6632 11397,6637 11398,6642 11400,6648 11401,6653 11403,6658 11405,6663 11408,6668 11411,6673 11413,6677 11416,6682 11420,6686 11423,6690 11427,6695 11430,6698 11434,6702 11438,6706 11443,6709 11447,6712 11452,6715 11456,6718 11461,6721 11466,6723 11471,6726 11476,6728 11481,6729 11486,6731 11492,6732 11497,6733 11502,6734 11508,6735 11513,6735 11519,6735 11524,6735 11530,6735 11535,6734 11540,6733 11546,6732 11551,6731 11556,6729 11562,6728 11567,6726 11572,6723 11576,6721 11581,6718 11586,6715 11590,6712 11595,6709 11599,6706 11603,6702 11607,6698 11611,6695 11615,6690 11618,6686 11621,6682 11624,6677 11627,6673 11630,6668 11632,6663 11634,6658 11636,6653 11638,6648 11640,6642 11641,6637 11642,6632 11643,6626 11643,6621 11644,6616 11644,6610 Z"/>
 <path fill="none" stroke="rgb(75,31,111)" stroke-linejoin="round" d="M 11644,6610 L 11644,6605 11643,6599 11643,6594 11642,6588 11641,6583 11640,6578 11638,6572 11636,6567 11634,6562 11632,6557 11630,6552 11627,6548 11624,6543 11621,6538 11618,6534 11615,6530 11611,6526 11607,6522 11603,6518 11599,6514 11595,6511 11590,6508 11586,6505 11581,6502 11576,6499 11572,6497 11567,6495 11562,6493 11556,6491 11551,6489 11546,6488 11540,6487 11535,6486 11530,6486 11524,6485 11519,6485 11513,6485 11508,6486 11502,6486 11497,6487 11492,6488 11486,6489 11481,6491 11476,6493 11471,6495 11466,6497 11461,6499 11456,6502 11452,6505 11447,6508 11443,6511 11438,6514 11434,6518 11430,6522 11427,6526 11423,6530 11420,6534 11416,6538 11413,6543 11411,6548 11408,6552 11405,6557 11403,6562 11401,6567 11400,6572 11398,6578 11397,6583 11396,6588 11395,6594 11394,6599 11394,6605 11394,6610 11394,6616 11394,6621 11395,6626 11396,6632 11397,6637 11398,6642 11400,6648 11401,6653 11403,6658 11405,6663 11408,6668 11411,6673 11413,6677 11416,6682 11420,6686 11423,6690 11427,6695 11430,6698 11434,6702 11438,6706 11443,6709 11447,6712 11452,6715 11456,6718 11461,6721 11466,6723 11471,6726 11476,6728 11481,6729 11486,6731 11492,6732 11497,6733 11502,6734 11508,6735 11513,6735 11519,6735 11524,6735 11530,6735 11535,6734 11540,6733 11546,6732 11551,6731 11556,6729 11562,6728 11567,6726 11572,6723 11576,6721 11581,6718 11586,6715 11590,6712 11595,6709 11599,6706 11603,6702 11607,6698 11611,6695 11615,6690 11618,6686 11621,6682 11624,6677 11627,6673 11630,6668 11632,6663 11634,6658 11636,6653 11638,6648 11640,6642 11641,6637 11642,6632 11643,6626 11643,6621 11644,6616 11644,6610 Z"/>
 <path fill="rgb(75,31,111)" stroke="none" d="M 12650,6511 L 12650,6506 12650,6500 12649,6495 12648,6490 12647,6484 12646,6479 12644,6474 12643,6469 12641,6463 12638,6458 12636,6454 12633,6449 12631,6444 12628,6440 12624,6435 12621,6431 12617,6427 12614,6423 12610,6419 12605,6416 12601,6412 12597,6409 12592,6406 12588,6403 12583,6400 12578,6398 12573,6396 12568,6394 12563,6392 12557,6391 12552,6389 12547,6388 12541,6387 12536,6387 12531,6386 12525,6386 12520,6386 12514,6387 12509,6387 12503,6388 12498,6389 12493,6391 12488,6392 12482,6394 12477,6396 12472,6398 12467,6400 12463,6403 12458,6406 12453,6409 12449,6412 12445,6416 12441,6419 12437,6423 12433,6427 12429,6431 12426,6435 12423,6440 12420,6444 12417,6449 12414,6454 12412,6458 12410,6463 12408,6469 12406,6474 12404,6479 12403,6484 12402,6490 12401,6495 12401,6500 12400,6506 12400,6511 12400,6517 12401,6522 12401,6528 12402,6533 12403,6538 12404,6544 12406,6549 12408,6554 12410,6559 12412,6564 12414,6569 12417,6574 12420,6578 12423,6583 12426,6587 12429,6592 12433,6596 12437,6600 12441,6603 12445,6607 12449,6610 12453,6614 12458,6617 12463,6620 12467,6622 12472,6625 12477,6627 12482,6629 12488,6630 12493,6632 12498,6633 12503,6634 12509,6635 12514,6636 12520,6636 12525,6636 12531,6636 12536,6636 12541,6635 12547,6634 12552,6633 12557,6632 12563,6630 12568,6629 12573,6627 12578,6625 12583,6622 12588,6620 12592,6617 12597,6614 12601,6610 12605,6607 12610,6603 12614,6600 12617,6596 12621,6592 12624,6587 12628,6583 12631,6578 12633,6574 12636,6569 12638,6564 12641,6559 12643,6554 12644,6549 12646,6544 12647,6538 12648,6533 12649,6528 12650,6522 12650,6517 12650,6511 Z"/>
 <path fill="none" stroke="rgb(75,31,111)" stroke-linejoin="round" d="M 12650,6511 L 12650,6506 12650,6500 12649,6495 12648,6490 12647,6484 12646,6479 12644,6474 12643,6469 12641,6463 12638,6458 12636,6454 12633,6449 12631,6444 12628,6440 12624,6435 12621,6431 12617,6427 12614,6423 12610,6419 12605,6416 12601,6412 12597,6409 12592,6406 12588,6403 12583,6400 12578,6398 12573,6396 12568,6394 12563,6392 12557,6391 12552,6389 12547,6388 12541,6387 12536,6387 12531,6386 12525,6386 12520,6386 12514,6387 12509,6387 12503,6388 12498,6389 12493,6391 12488,6392 12482,6394 12477,6396 12472,6398 12467,6400 12463,6403 12458,6406 12453,6409 12449,6412 12445,6416 12441,6419 12437,6423 12433,6427 12429,6431 12426,6435 12423,6440 12420,6444 12417,6449 12414,6454 12412,6458 12410,6463 12408,6469 12406,6474 12404,6479 12403,6484 12402,6490 12401,6495 12401,6500 12400,6506 12400,6511 12400,6517 12401,6522 12401,6528 12402,6533 12403,6538 12404,6544 12406,6549 12408,6554 12410,6559 12412,6564 12414,6569 12417,6574 12420,6578 12423,6583 12426,6587 12429,6592 12433,6596 12437,6600 12441,6603 12445,6607 12449,6610 12453,6614 12458,6617 12463,6620 12467,6622 12472,6625 12477,6627 12482,6629 12488,6630 12493,6632 12498,6633 12503,6634 12509,6635 12514,6636 12520,6636 12525,6636 12531,6636 12536,6636 12541,6635 12547,6634 12552,6633 12557,6632 12563,6630 12568,6629 12573,6627 12578,6625 12583,6622 12588,6620 12592,6617 12597,6614 12601,6610 12605,6607 12610,6603 12614,6600 12617,6596 12621,6592 12624,6587 12628,6583 12631,6578 12633,6574 12636,6569 12638,6564 12641,6559 12643,6554 12644,6549 12646,6544 12647,6538 12648,6533 12649,6528 12650,6522 12650,6517 12650,6511 Z"/>
 <path fill="rgb(75,31,111)" stroke="none" d="M 13657,6313 L 13656,6308 13656,6302 13655,6297 13655,6291 13654,6286 13652,6281 13651,6275 13649,6270 13647,6265 13645,6260 13642,6255 13640,6250 13637,6246 13634,6241 13631,6237 13627,6233 13624,6229 13620,6225 13616,6221 13612,6217 13608,6214 13603,6211 13599,6208 13594,6205 13589,6202 13584,6200 13579,6197 13574,6195 13569,6194 13564,6192 13559,6191 13553,6190 13548,6189 13542,6188 13537,6188 13532,6188 13526,6188 13521,6188 13515,6189 13510,6190 13504,6191 13499,6192 13494,6194 13489,6195 13484,6197 13479,6200 13474,6202 13469,6205 13464,6208 13460,6211 13455,6214 13451,6217 13447,6221 13443,6225 13439,6229 13436,6233 13432,6237 13429,6241 13426,6246 13423,6250 13421,6255 13418,6260 13416,6265 13414,6270 13412,6275 13411,6281 13409,6286 13408,6291 13408,6297 13407,6302 13407,6308 13407,6313 13407,6318 13407,6324 13408,6329 13408,6335 13409,6340 13411,6345 13412,6351 13414,6356 13416,6361 13418,6366 13421,6371 13423,6375 13426,6380 13429,6385 13432,6389 13436,6393 13439,6397 13443,6401 13447,6405 13451,6409 13455,6412 13460,6415 13464,6418 13469,6421 13474,6424 13479,6426 13484,6428 13489,6430 13494,6432 13499,6434 13504,6435 13510,6436 13515,6437 13521,6437 13526,6438 13532,6438 13537,6438 13542,6437 13548,6437 13553,6436 13559,6435 13564,6434 13569,6432 13574,6430 13579,6428 13584,6426 13589,6424 13594,6421 13599,6418 13603,6415 13608,6412 13612,6409 13616,6405 13620,6401 13624,6397 13627,6393 13631,6389 13634,6385 13637,6380 13640,6375 13642,6371 13645,6366 13647,6361 13649,6356 13651,6351 13652,6345 13654,6340 13655,6335 13655,6329 13656,6324 13656,6318 13657,6313 Z"/>
 <path fill="none" stroke="rgb(75,31,111)" stroke-linejoin="round" d="M 13657,6313 L 13656,6308 13656,6302 13655,6297 13655,6291 13654,6286 13652,6281 13651,6275 13649,6270 13647,6265 13645,6260 13642,6255 13640,6250 13637,6246 13634,6241 13631,6237 13627,6233 13624,6229 13620,6225 13616,6221 13612,6217 13608,6214 13603,6211 13599,6208 13594,6205 13589,6202 13584,6200 13579,6197 13574,6195 13569,6194 13564,6192 13559,6191 13553,6190 13548,6189 13542,6188 13537,6188 13532,6188 13526,6188 13521,6188 13515,6189 13510,6190 13504,6191 13499,6192 13494,6194 13489,6195 13484,6197 13479,6200 13474,6202 13469,6205 13464,6208 13460,6211 13455,6214 13451,6217 13447,6221 13443,6225 13439,6229 13436,6233 13432,6237 13429,6241 13426,6246 13423,6250 13421,6255 13418,6260 13416,6265 13414,6270 13412,6275 13411,6281 13409,6286 13408,6291 13408,6297 13407,6302 13407,6308 13407,6313 13407,6318 13407,6324 13408,6329 13408,6335 13409,6340 13411,6345 13412,6351 13414,6356 13416,6361 13418,6366 13421,6371 13423,6375 13426,6380 13429,6385 13432,6389 13436,6393 13439,6397 13443,6401 13447,6405 13451,6409 13455,6412 13460,6415 13464,6418 13469,6421 13474,6424 13479,6426 13484,6428 13489,6430 13494,6432 13499,6434 13504,6435 13510,6436 13515,6437 13521,6437 13526,6438 13532,6438 13537,6438 13542,6437 13548,6437 13553,6436 13559,6435 13564,6434 13569,6432 13574,6430 13579,6428 13584,6426 13589,6424 13594,6421 13599,6418 13603,6415 13608,6412 13612,6409 13616,6405 13620,6401 13624,6397 13627,6393 13631,6389 13634,6385 13637,6380 13640,6375 13642,6371 13645,6366 13647,6361 13649,6356 13651,6351 13652,6345 13654,6340 13655,6335 13655,6329 13656,6324 13656,6318 13657,6313 Z"/>
 <path fill="none" stroke="rgb(255,149,14)" stroke-width="80" stroke-linejoin="round" d="M 2463,12993 L 3469,12281 4475,11782 5482,11447 6488,11377 7494,11166 8501,11106 9506,10881 10512,10751 11519,10702 12525,10743 13532,10609"/>
 <path fill="rgb(255,149,14)" stroke="none" d="M 2463,12868 L 2488,12968 2588,12993 2488,13018 2463,13118 2438,13018 2338,12993 2438,12968 2463,12868 Z"/>
 <path fill="none" stroke="rgb(255,149,14)" stroke-linejoin="round" d="M 2463,12868 L 2488,12968 2588,12993 2488,13018 2463,13118 2438,13018 2338,12993 2438,12968 2463,12868 Z"/>
 <path fill="rgb(255,149,14)" stroke="none" d="M 3469,12156 L 3494,12256 3594,12281 3494,12306 3469,12406 3444,12306 3344,12281 3444,12256 3469,12156 Z"/>
 <path fill="none" stroke="rgb(255,149,14)" stroke-linejoin="round" d="M 3469,12156 L 3494,12256 3594,12281 3494,12306 3469,12406 3444,12306 3344,12281 3444,12256 3469,12156 Z"/>
 <path fill="rgb(255,149,14)" stroke="none" d="M 4475,11657 L 4500,11757 4600,11782 4500,11807 4475,11907 4450,11807 4350,11782 4450,11757 4475,11657 Z"/>
 <path fill="none" stroke="rgb(255,149,14)" stroke-linejoin="round" d="M 4475,11657 L 4500,11757 4600,11782 4500,11807 4475,11907 4450,11807 4350,11782 4450,11757 4475,11657 Z"/>
 <path fill="rgb(255,149,14)" stroke="none" d="M 5482,11322 L 5507,11422 5607,11447 5507,11472 5482,11572 5457,11472 5357,11447 5457,11422 5482,11322 Z"/>
 <path fill="none" stroke="rgb(255,149,14)" stroke-linejoin="round" d="M 5482,11322 L 5507,11422 5607,11447 5507,11472 5482,11572 5457,11472 5357,11447 5457,11422 5482,11322 Z"/>
 <path fill="rgb(255,149,14)" stroke="none" d="M 6488,11252 L 6513,11352 6613,11377 6513,11402 6488,11502 6463,11402 6363,11377 6463,11352 6488,11252 Z"/>
 <path fill="none" stroke="rgb(255,149,14)" stroke-linejoin="round" d="M 6488,11252 L 6513,11352 6613,11377 6513,11402 6488,11502 6463,11402 6363,11377 6463,11352 6488,11252 Z"/>
 <path fill="rgb(255,149,14)" stroke="none" d="M 7494,11041 L 7519,11141 7619,11166 7519,11191 7494,11291 7469,11191 7369,11166 7469,11141 7494,11041 Z"/>
 <path fill="none" stroke="rgb(255,149,14)" stroke-linejoin="round" d="M 7494,11041 L 7519,11141 7619,11166 7519,11191 7494,11291 7469,11191 7369,11166 7469,11141 7494,11041 Z"/>
 <path fill="rgb(255,149,14)" stroke="none" d="M 8501,10981 L 8526,11081 8626,11106 8526,11131 8501,11231 8476,11131 8376,11106 8476,11081 8501,10981 Z"/>
 <path fill="none" stroke="rgb(255,149,14)" stroke-linejoin="round" d="M 8501,10981 L 8526,11081 8626,11106 8526,11131 8501,11231 8476,11131 8376,11106 8476,11081 8501,10981 Z"/>
 <path fill="rgb(255,149,14)" stroke="none" d="M 9506,10756 L 9531,10856 9631,10881 9531,10906 9506,11006 9481,10906 9381,10881 9481,10856 9506,10756 Z"/>
 <path fill="none" stroke="rgb(255,149,14)" stroke-linejoin="round" d="M 9506,10756 L 9531,10856 9631,10881 9531,10906 9506,11006 9481,10906 9381,10881 9481,10856 9506,10756 Z"/>
 <path fill="rgb(255,149,14)" stroke="none" d="M 10512,10626 L 10537,10726 10637,10751 10537,10776 10512,10876 10487,10776 10387,10751 10487,10726 10512,10626 Z"/>
 <path fill="none" stroke="rgb(255,149,14)" stroke-linejoin="round" d="M 10512,10626 L 10537,10726 10637,10751 10537,10776 10512,10876 10487,10776 10387,10751 10487,10726 10512,10626 Z"/>
 <path fill="rgb(255,149,14)" stroke="none" d="M 11519,10577 L 11544,10677 11644,10702 11544,10727 11519,10827 11494,10727 11394,10702 11494,10677 11519,10577 Z"/>
 <path fill="none" stroke="rgb(255,149,14)" stroke-linejoin="round" d="M 11519,10577 L 11544,10677 11644,10702 11544,10727 11519,10827 11494,10727 11394,10702 11494,10677 11519,10577 Z"/>
 <path fill="rgb(255,149,14)" stroke="none" d="M 12525,10618 L 12550,10718 12650,10743 12550,10768 12525,10868 12500,10768 12400,10743 12500,10718 12525,10618 Z"/>
 <path fill="none" stroke="rgb(255,149,14)" stroke-linejoin="round" d="M 12525,10618 L 12550,10718 12650,10743 12550,10768 12525,10868 12500,10768 12400,10743 12500,10718 12525,10618 Z"/>
 <path fill="rgb(255,149,14)" stroke="none" d="M 13532,10484 L 13557,10584 13657,10609 13557,10634 13532,10734 13507,10634 13407,10609 13507,10584 13532,10484 Z"/>
 <path fill="none" stroke="rgb(255,149,14)" stroke-linejoin="round" d="M 13532,10484 L 13557,10584 13657,10609 13557,10634 13532,10734 13507,10634 13407,10609 13507,10584 13532,10484 Z"/>
 <text class="TextShape"><tspan class="TextParagraph" font-family="Liberation Sans, sans-serif" font-size="353px" font-weight="400"><tspan class="TextPosition" x="2370" y="16641"><tspan fill="rgb(0,0,0)" stroke="none">4</tspan></tspan></tspan></text>
 <text class="TextShape"><tspan class="TextParagraph" font-family="Liberation Sans, sans-serif" font-size="353px" font-weight="400"><tspan class="TextPosition" x="3284" y="16641"><tspan fill="rgb(0,0,0)" stroke="none">10</tspan></tspan></tspan></text>
 <text class="TextShape"><tspan class="TextParagraph" font-family="Liberation Sans, sans-serif" font-size="353px" font-weight="400"><tspan class="TextPosition" x="4290" y="16641"><tspan fill="rgb(0,0,0)" stroke="none">15</tspan></tspan></tspan></text>
 <text class="TextShape"><tspan class="TextParagraph" font-family="Liberation Sans, sans-serif" font-size="353px" font-weight="400"><tspan class="TextPosition" x="5297" y="16641"><tspan fill="rgb(0,0,0)" stroke="none">20</tspan></tspan></tspan></text>
 <text class="TextShape"><tspan class="TextParagraph" font-family="Liberation Sans, sans-serif" font-size="353px" font-weight="400"><tspan class="TextPosition" x="6303" y="16641"><tspan fill="rgb(0,0,0)" stroke="none">22</tspan></tspan></tspan></text>
 <text class="TextShape"><tspan class="TextParagraph" font-family="Liberation Sans, sans-serif" font-size="353px" font-weight="400"><tspan class="TextPosition" x="7309" y="16641"><tspan fill="rgb(0,0,0)" stroke="none">25</tspan></tspan></tspan></text>
 <text class="TextShape"><tspan class="TextParagraph" font-family="Liberation Sans, sans-serif" font-size="353px" font-weight="400"><tspan class="TextPosition" x="8316" y="16641"><tspan fill="rgb(0,0,0)" stroke="none">27</tspan></tspan></tspan></text>
 <text class="TextShape"><tspan class="TextParagraph" font-family="Liberation Sans, sans-serif" font-size="353px" font-weight="400"><tspan class="TextPosition" x="9322" y="16641"><tspan fill="rgb(0,0,0)" stroke="none">30</tspan></tspan></tspan></text>
 <text class="TextShape"><tspan class="TextParagraph" font-family="Liberation Sans, sans-serif" font-size="353px" font-weight="400"><tspan class="TextPosition" x="10328" y="16641"><tspan fill="rgb(0,0,0)" stroke="none">32</tspan></tspan></tspan></text>
 <text class="TextShape"><tspan class="TextParagraph" font-family="Liberation Sans, sans-serif" font-size="353px" font-weight="400"><tspan class="TextPosition" x="11335" y="16641"><tspan fill="rgb(0,0,0)" stroke="none">35</tspan></tspan></tspan></text>
 <text class="TextShape"><tspan class="TextParagraph" font-family="Liberation Sans, sans-serif" font-size="353px" font-weight="400"><tspan class="TextPosition" x="12341" y="16641"><tspan fill="rgb(0,0,0)" stroke="none">37</tspan></tspan></tspan></text>
 <text class="TextShape"><tspan class="TextParagraph" font-family="Liberation Sans, sans-serif" font-size="353px" font-weight="400"><tspan class="TextPosition" x="13348" y="16641"><tspan fill="rgb(0,0,0)" stroke="none">40</tspan></tspan></tspan></text>
 <text class="TextShape"><tspan class="TextParagraph" font-family="Liberation Sans, sans-serif" font-size="353px" font-weight="400"><tspan class="TextPosition" x="1366" y="16194"><tspan fill="rgb(0,0,0)" stroke="none">0.001</tspan></tspan></tspan></text>
 <text class="TextShape"><tspan class="TextParagraph" font-family="Liberation Sans, sans-serif" font-size="353px" font-weight="400"><tspan class="TextPosition" x="1552" y="13608"><tspan fill="rgb(0,0,0)" stroke="none">0.01</tspan></tspan></tspan></text>
 <text class="TextShape"><tspan class="TextParagraph" font-family="Liberation Sans, sans-serif" font-size="353px" font-weight="400"><tspan class="TextPosition" x="1737" y="11022"><tspan fill="rgb(0,0,0)" stroke="none">0.1</tspan></tspan></tspan></text>
 <text class="TextShape"><tspan class="TextParagraph" font-family="Liberation Sans, sans-serif" font-size="353px" font-weight="400"><tspan class="TextPosition" x="2028" y="8436"><tspan fill="rgb(0,0,0)" stroke="none">1</tspan></tspan></tspan></text>
 <text class="TextShape"><tspan class="TextParagraph" font-family="Liberation Sans, sans-serif" font-size="353px" font-weight="400"><tspan class="TextPosition" x="1843" y="5850"><tspan fill="rgb(0,0,0)" stroke="none">10</tspan></tspan></tspan></text>
 <text class="TextShape"><tspan class="TextParagraph" font-family="Liberation Sans, sans-serif" font-size="353px" font-weight="400"><tspan class="TextPosition" x="1657" y="3264"><tspan fill="rgb(0,0,0)" stroke="none">100</tspan></tspan></tspan></text>
 <text class="TextShape"><tspan class="TextParagraph" font-family="Liberation Sans, sans-serif" font-size="353px" font-weight="400"><tspan class="TextPosition" x="1472" y="679"><tspan fill="rgb(0,0,0)" stroke="none">1000</tspan></tspan></tspan></text>
 <path fill="none" stroke="rgb(0,69,134)" stroke-width="80" stroke-linejoin="round" d="M 14189,6790 L 14989,6790"/>
 <path fill="rgb(0,69,134)" stroke="none" d="M 14483,6685 L 14483,6895 14694,6895 14694,6685 14483,6685 Z"/>
 <path fill="none" stroke="rgb(0,69,134)" stroke-linejoin="round" d="M 14483,6685 L 14483,6895 14694,6895 14694,6685 14483,6685 Z"/>
 <path fill="none" stroke="rgb(255,66,14)" stroke-width="80" stroke-linejoin="round" d="M 14189,7288 L 14989,7288"/>
 <path fill="rgb(255,66,14)" stroke="none" d="M 14483,7288 L 14589,7393 14694,7288 14589,7183 14483,7288 Z"/>
 <path fill="none" stroke="rgb(255,66,14)" stroke-linejoin="round" d="M 14483,7288 L 14589,7393 14694,7288 14589,7183 14483,7288 Z"/>
 <path fill="none" stroke="rgb(255,211,32)" stroke-width="80" stroke-linejoin="round" d="M 14189,7786 L 14989,7786"/>
 <path fill="rgb(255,211,32)" stroke="none" d="M 14483,7681 L 14589,7891 14694,7681 14483,7681 Z"/>
 <path fill="none" stroke="rgb(255,211,32)" stroke-linejoin="round" d="M 14483,7681 L 14589,7891 14694,7681 14483,7681 Z"/>
 <path fill="none" stroke="rgb(87,157,28)" stroke-width="80" stroke-linejoin="round" d="M 14189,8284 L 14989,8284"/>
 <path fill="rgb(87,157,28)" stroke="none" d="M 14483,8389 L 14694,8389 14589,8179 14483,8389 Z"/>
 <path fill="none" stroke="rgb(87,157,28)" stroke-linejoin="round" d="M 14483,8389 L 14694,8389 14589,8179 14483,8389 Z"/>
 <path fill="none" stroke="rgb(126,0,33)" stroke-width="80" stroke-linejoin="round" d="M 14189,8782 L 14989,8782"/>
 <path fill="rgb(126,0,33)" stroke="none" d="M 14483,8677 L 14483,8887 14694,8782 14483,8677 Z"/>
 <path fill="none" stroke="rgb(126,0,33)" stroke-linejoin="round" d="M 14483,8677 L 14483,8887 14694,8782 14483,8677 Z"/>
 <path fill="none" stroke="rgb(131,202,255)" stroke-width="80" stroke-linejoin="round" d="M 14189,9279 L 14989,9279"/>
 <path fill="rgb(131,202,255)" stroke="none" d="M 14483,9279 L 14694,9384 14694,9174 14483,9279 Z"/>
 <path fill="none" stroke="rgb(131,202,255)" stroke-linejoin="round" d="M 14483,9279 L 14694,9384 14694,9174 14483,9279 Z"/>
 <path fill="none" stroke="rgb(49,64,4)" stroke-width="80" stroke-linejoin="round" d="M 14189,9777 L 14989,9777"/>
 <path fill="rgb(49,64,4)" stroke="none" d="M 14483,9672 L 14483,9882 14694,9672 14694,9882 14483,9672 Z"/>
 <path fill="none" stroke="rgb(49,64,4)" stroke-linejoin="round" d="M 14483,9672 L 14483,9882 14694,9672 14694,9882 14483,9672 Z"/>
 <path fill="none" stroke="rgb(174,207,0)" stroke-width="80" stroke-linejoin="round" d="M 14189,10275 L 14989,10275"/>
 <path fill="rgb(174,207,0)" stroke="none" d="M 14483,10380 L 14694,10380 14483,10170 14694,10170 14483,10380 Z"/>
 <path fill="none" stroke="rgb(174,207,0)" stroke-linejoin="round" d="M 14483,10380 L 14694,10380 14483,10170 14694,10170 14483,10380 Z"/>
 <path fill="none" stroke="rgb(75,31,111)" stroke-width="80" stroke-linejoin="round" d="M 14189,10773 L 14989,10773"/>
 <path fill="rgb(75,31,111)" stroke="none" d="M 14694,10773 L 14694,10768 14694,10763 14693,10759 14692,10754 14691,10750 14690,10745 14689,10741 14688,10736 14686,10732 14684,10728 14682,10724 14680,10720 14677,10716 14675,10712 14672,10708 14669,10705 14666,10701 14663,10698 14660,10695 14656,10692 14653,10689 14649,10686 14645,10684 14641,10681 14637,10679 14633,10677 14629,10675 14625,10673 14620,10672 14616,10671 14611,10670 14607,10669 14602,10668 14598,10668 14593,10668 14589,10668 14584,10668 14579,10668 14575,10668 14570,10669 14566,10670 14561,10671 14557,10672 14552,10673 14548,10675 14544,10677 14540,10679 14536,10681 14532,10684 14528,10686 14524,10689 14521,10692 14517,10695 14514,10698 14511,10701 14508,10705 14505,10708 14502,10712 14500,10716 14497,10720 14495,10724 14493,10728 14491,10732 14489,10736 14488,10741 14487,10745 14486,10750 14485,10754 14484,10759 14483,10763 14483,10768 14483,10773 14483,10777 14483,10782 14484,10786 14485,10791 14486,10795 14487,10800 14488,10804 14489,10809 14491,10813 14493,10817 14495,10821 14497,10825 14500,10829 14502,10833 14505,10837 14508,10840 14511,10844 14514,10847 14517,10850 14521,10853 14524,10856 14528,10859 14532,10861 14536,10864 14540,10866 14544,10868 14548,10870 14552,10872 14557,10873 14561,10874 14566,10875 14570,10876 14575,10877 14579,10878 14584,10878 14589,10878 14593,10878 14598,10878 14602,10877 14607,10876 14611,10875 14616,10874 14620,10873 14625,10872 14629,10870 14633,10868 14637,10866 14641,10864 14645,10861 14649,10859 14653,10856 14656,10853 14660,10850 14663,10847 14666,10844 14669,10840 14672,10837 14675,10833 14677,10829 14680,10825 14682,10821 14684,10817 14686,10813 14688,10809 14689,10804 14690,10800 14691,10795 14692,10791 14693,10786 14694,10782 14694,10777 14694,10773 Z"/>
 <path fill="none" stroke="rgb(75,31,111)" stroke-linejoin="round" d="M 14694,10773 L 14694,10768 14694,10763 14693,10759 14692,10754 14691,10750 14690,10745 14689,10741 14688,10736 14686,10732 14684,10728 14682,10724 14680,10720 14677,10716 14675,10712 14672,10708 14669,10705 14666,10701 14663,10698 14660,10695 14656,10692 14653,10689 14649,10686 14645,10684 14641,10681 14637,10679 14633,10677 14629,10675 14625,10673 14620,10672 14616,10671 14611,10670 14607,10669 14602,10668 14598,10668 14593,10668 14589,10668 14584,10668 14579,10668 14575,10668 14570,10669 14566,10670 14561,10671 14557,10672 14552,10673 14548,10675 14544,10677 14540,10679 14536,10681 14532,10684 14528,10686 14524,10689 14521,10692 14517,10695 14514,10698 14511,10701 14508,10705 14505,10708 14502,10712 14500,10716 14497,10720 14495,10724 14493,10728 14491,10732 14489,10736 14488,10741 14487,10745 14486,10750 14485,10754 14484,10759 14483,10763 14483,10768 14483,10773 14483,10777 14483,10782 14484,10786 14485,10791 14486,10795 14487,10800 14488,10804 14489,10809 14491,10813 14493,10817 14495,10821 14497,10825 14500,10829 14502,10833 14505,10837 14508,10840 14511,10844 14514,10847 14517,10850 14521,10853 14524,10856 14528,10859 14532,10861 14536,10864 14540,10866 14544,10868 14548,10870 14552,10872 14557,10873 14561,10874 14566,10875 14570,10876 14575,10877 14579,10878 14584,10878 14589,10878 14593,10878 14598,10878 14602,10877 14607,10876 14611,10875 14616,10874 14620,10873 14625,10872 14629,10870 14633,10868 14637,10866 14641,10864 14645,10861 14649,10859 14653,10856 14656,10853 14660,10850 14663,10847 14666,10844 14669,10840 14672,10837 14675,10833 14677,10829 14680,10825 14682,10821 14684,10817 14686,10813 14688,10809 14689,10804 14690,10800 14691,10795 14692,10791 14693,10786 14694,10782 14694,10777 14694,10773 Z"/>
 <path fill="none" stroke="rgb(255,149,14)" stroke-width="80" stroke-linejoin="round" d="M 14189,11271 L 14989,11271"/>
 <path fill="rgb(255,149,14)" stroke="none" d="M 14589,11166 L 14610,11249 14694,11271 14610,11292 14589,11376 14567,11292 14483,11271 14567,11249 14589,11166 Z"/>
 <path fill="none" stroke="rgb(255,149,14)" stroke-linejoin="round" d="M 14589,11166 L 14610,11249 14694,11271 14610,11292 14589,11376 14567,11292 14483,11271 14567,11249 14589,11166 Z"/>
 <text class="TextShape"><tspan class="TextParagraph" font-family="Liberation Sans, sans-serif" font-size="353px" font-weight="400"><tspan class="TextPosition" x="15089" y="6910"><tspan fill="rgb(0,0,0)" stroke="none">Bruteforce</tspan></tspan></tspan></text>
 <text class="TextShape"><tspan class="TextParagraph" font-family="Liberation Sans, sans-serif" font-size="353px" font-weight="400"><tspan class="TextPosition" x="15089" y="7408"><tspan fill="rgb(0,0,0)" stroke="none">B&amp;B</tspan></tspan></tspan></text>
 <text class="TextShape"><tspan class="TextParagraph" font-family="Liberation Sans, sans-serif" font-size="353px" font-weight="400"><tspan class="TextPosition" x="15089" y="7906"><tspan fill="rgb(0,0,0)" stroke="none">Dynam. (cycle)</tspan></tspan></tspan></text>
 <text class="TextShape"><tspan class="TextParagraph" font-family="Liberation Sans, sans-serif" font-size="353px" font-weight="400"><tspan class="TextPosition" x="15089" y="8404"><tspan fill="rgb(0,0,0)" stroke="none">Dynam. (rec)</tspan></tspan></tspan></text>
 <text class="TextShape"><tspan class="TextParagraph" font-family="Liberation Sans, sans-serif" font-size="353px" font-weight="400"><tspan class="TextPosition" x="15089" y="8902"><tspan fill="rgb(0,0,0)" stroke="none">FPTAS e=0</tspan></tspan></tspan></text>
 <text class="TextShape"><tspan class="TextParagraph" font-family="Liberation Sans, sans-serif" font-size="353px" font-weight="400"><tspan class="TextPosition" x="15089" y="9399"><tspan fill="rgb(0,0,0)" stroke="none">FPTAS e=0.1</tspan></tspan></tspan></text>
 <text class="TextShape"><tspan class="TextParagraph" font-family="Liberation Sans, sans-serif" font-size="353px" font-weight="400"><tspan class="TextPosition" x="15089" y="9897"><tspan fill="rgb(0,0,0)" stroke="none">FPTAS e=0.25</tspan></tspan></tspan></text>
 <text class="TextShape"><tspan class="TextParagraph" font-family="Liberation Sans, sans-serif" font-size="353px" font-weight="400"><tspan class="TextPosition" x="15089" y="10395"><tspan fill="rgb(0,0,0)" stroke="none">FPTAS e=0.5</tspan></tspan></tspan></text>
 <text class="TextShape"><tspan class="TextParagraph" font-family="Liberation Sans, sans-serif" font-size="353px" font-weight="400"><tspan class="TextPosition" x="15089" y="10893"><tspan fill="rgb(0,0,0)" stroke="none">FPTAS e=0.75</tspan></tspan></tspan></text>
 <text class="TextShape"><tspan class="TextParagraph" font-family="Liberation Sans, sans-serif" font-size="353px" font-weight="400"><tspan class="TextPosition" x="15089" y="11391"><tspan fill="rgb(0,0,0)" stroke="none">Heuristic</tspan></tspan></tspan></text>
 <text class="TextShape"><tspan class="TextParagraph" font-family="Liberation Sans, sans-serif" font-size="318px" font-weight="400"><tspan class="TextPosition" x="6602" y="17469"><tspan fill="rgb(0,0,0)" stroke="none">instance size</tspan></tspan></tspan></text>
 <text class="TextShape"><tspan class="TextParagraph" font-family="Liberation Sans, sans-serif" font-size="318px" font-weight="400"><tspan class="TextPosition" x="837" y="9043" transform="translate(837,9043) rotate(-90) translate(-837,-9043)"><tspan fill="rgb(0,0,0)" stroke="none">time [s]</tspan></tspan></tspan></text>
</svg>