<?xml version="1.0" encoding="UTF-8"?>
<!DOCTYPE svg PUBLIC "-//W3C//DTD SVG 1.1//EN" "http://www.w3.org/Graphics/SVG/1.1/DTD/svg11.dtd">
<svg width="160mm" height="90mm" viewBox="0 0 16000 9000" version="1.1" baseProfile="tiny" xmlns="http://www.w3.org/2000/svg" stroke-width="28.222" stroke-linejoin="round" xml:space="preserve">
 <path fill="rgb(255,255,255)" stroke="none" d="M 8011,9004 L 0,9004 0,0 16022,0 16022,9004 8011,9004 Z"/>
 <path fill="none" stroke="rgb(179,179,179)" stroke-linejoin="round" d="M 7364,7196 L 1682,7196 1682,379 13046,379 13046,7196 7364,7196 Z"/>
 <path fill="none" stroke="rgb(179,179,179)" stroke-linejoin="round" d="M 13046,7195 L 1682,7195"/>
 <path fill="none" stroke="rgb(179,179,179)" stroke-linejoin="round" d="M 13046,6342 L 1682,6342"/>
 <path fill="none" stroke="rgb(179,179,179)" stroke-linejoin="round" d="M 13046,5490 L 1682,5490"/>
 <path fill="none" stroke="rgb(179,179,179)" stroke-linejoin="round" d="M 13046,4638 L 1682,4638"/>
 <path fill="none" stroke="rgb(179,179,179)" stroke-linejoin="round" d="M 13046,3787 L 1682,3787"/>
 <path fill="none" stroke="rgb(179,179,179)" stroke-linejoin="round" d="M 13046,2934 L 1682,2934"/>
 <path fill="none" stroke="rgb(179,179,179)" stroke-linejoin="round" d="M 13046,2082 L 1682,2082"/>
 <path fill="none" stroke="rgb(179,179,179)" stroke-linejoin="round" d="M 13046,1230 L 1682,1230"/>
 <path fill="none" stroke="rgb(179,179,179)" stroke-linejoin="round" d="M 13046,378 L 1682,378"/>
 <path fill="none" stroke="rgb(179,179,179)" stroke-linejoin="round" d="M 1682,7345 L 1682,7195"/>
 <path fill="none" stroke="rgb(179,179,179)" stroke-linejoin="round" d="M 1682,7345 L 1682,7195"/>
 <path fill="none" stroke="rgb(179,179,179)" stroke-linejoin="round" d="M 2944,7345 L 2944,7195"/>
 <path fill="none" stroke="rgb(179,179,179)" stroke-linejoin="round" d="M 2944,7345 L 2944,7195"/>
 <path fill="none" stroke="rgb(179,179,179)" stroke-linejoin="round" d="M 4207,7345 L 4207,7195"/>
 <path fill="none" stroke="rgb(179,179,179)" stroke-linejoin="round" d="M 4207,7345 L 4207,7195"/>
 <path fill="none" stroke="rgb(179,179,179)" stroke-linejoin="round" d="M 5470,7345 L 5470,7195"/>
 <path fill="none" stroke="rgb(179,179,179)" stroke-linejoin="round" d="M 5470,7345 L 5470,7195"/>
 <path fill="none" stroke="rgb(179,179,179)" stroke-linejoin="round" d="M 6733,7345 L 6733,7195"/>
 <path fill="none" stroke="rgb(179,179,179)" stroke-linejoin="round" d="M 6733,7345 L 6733,7195"/>
 <path fill="none" stroke="rgb(179,179,179)" stroke-linejoin="round" d="M 7995,7345 L 7995,7195"/>
 <path fill="none" stroke="rgb(179,179,179)" stroke-linejoin="round" d="M 7995,7345 L 7995,7195"/>
 <path fill="none" stroke="rgb(179,179,179)" stroke-linejoin="round" d="M 9257,7345 L 9257,7195"/>
 <path fill="none" stroke="rgb(179,179,179)" stroke-linejoin="round" d="M 9257,7345 L 9257,7195"/>
 <path fill="none" stroke="rgb(179,179,179)" stroke-linejoin="round" d="M 10520,7345 L 10520,7195"/>
 <path fill="none" stroke="rgb(179,179,179)" stroke-linejoin="round" d="M 10520,7345 L 10520,7195"/>
 <path fill="none" stroke="rgb(179,179,179)" stroke-linejoin="round" d="M 11783,7345 L 11783,7195"/>
 <path fill="none" stroke="rgb(179,179,179)" stroke-linejoin="round" d="M 11783,7345 L 11783,7195"/>
 <path fill="none" stroke="rgb(179,179,179)" stroke-linejoin="round" d="M 13046,7345 L 13046,7195"/>
 <path fill="none" stroke="rgb(179,179,179)" stroke-linejoin="round" d="M 13046,7345 L 13046,7195"/>
 <path fill="none" stroke="rgb(179,179,179)" stroke-linejoin="round" d="M 1682,7195 L 13046,7195"/>
 <path fill="none" stroke="rgb(179,179,179)" stroke-linejoin="round" d="M 1532,7195 L 1682,7195"/>
 <path fill="none" stroke="rgb(179,179,179)" stroke-linejoin="round" d="M 1532,7195 L 1682,7195"/>
 <path fill="none" stroke="rgb(179,179,179)" stroke-linejoin="round" d="M 1532,6342 L 1682,6342"/>
 <path fill="none" stroke="rgb(179,179,179)" stroke-linejoin="round" d="M 1532,6342 L 1682,6342"/>
 <path fill="none" stroke="rgb(179,179,179)" stroke-linejoin="round" d="M 1532,5490 L 1682,5490"/>
 <path fill="none" stroke="rgb(179,179,179)" stroke-linejoin="round" d="M 1532,5490 L 1682,5490"/>
 <path fill="none" stroke="rgb(179,179,179)" stroke-linejoin="round" d="M 1532,4638 L 1682,4638"/>
 <path fill="none" stroke="rgb(179,179,179)" stroke-linejoin="round" d="M 1532,4638 L 1682,4638"/>
 <path fill="none" stroke="rgb(179,179,179)" stroke-linejoin="round" d="M 1532,3787 L 1682,3787"/>
 <path fill="none" stroke="rgb(179,179,179)" stroke-linejoin="round" d="M 1532,3787 L 1682,3787"/>
 <path fill="none" stroke="rgb(179,179,179)" stroke-linejoin="round" d="M 1532,2934 L 1682,2934"/>
 <path fill="none" stroke="rgb(179,179,179)" stroke-linejoin="round" d="M 1532,2934 L 1682,2934"/>
 <path fill="none" stroke="rgb(179,179,179)" stroke-linejoin="round" d="M 1532,2082 L 1682,2082"/>
 <path fill="none" stroke="rgb(179,179,179)" stroke-linejoin="round" d="M 1532,2082 L 1682,2082"/>
 <path fill="none" stroke="rgb(179,179,179)" stroke-linejoin="round" d="M 1532,1230 L 1682,1230"/>
 <path fill="none" stroke="rgb(179,179,179)" stroke-linejoin="round" d="M 1532,1230 L 1682,1230"/>
 <path fill="none" stroke="rgb(179,179,179)" stroke-linejoin="round" d="M 1532,378 L 1682,378"/>
 <path fill="none" stroke="rgb(179,179,179)" stroke-linejoin="round" d="M 1532,378 L 1682,378"/>
 <path fill="none" stroke="rgb(179,179,179)" stroke-linejoin="round" d="M 1682,7195 L 1682,378"/>
 <path fill="none" stroke="rgb(0,69,134)" stroke-width="80" stroke-linejoin="round" d="M 1682,5026 L 2944,1658 4207,1243 5470,1235 6733,841 7995,1260 9257,1064 10520,1191 11783,1155 13046,940"/>
 <path fill="rgb(0,69,134)" stroke="none" d="M 1557,4901 L 1557,5151 1807,5151 1807,4901 1557,4901 Z"/>
 <path fill="none" stroke="rgb(0,69,134)" stroke-linejoin="round" d="M 1557,4901 L 1557,5151 1807,5151 1807,4901 1557,4901 Z"/>
 <path fill="rgb(0,69,134)" stroke="none" d="M 2819,1533 L 2819,1783 3069,1783 3069,1533 2819,1533 Z"/>
 <path fill="none" stroke="rgb(0,69,134)" stroke-linejoin="round" d="M 2819,1533 L 2819,1783 3069,1783 3069,1533 2819,1533 Z"/>
 <path fill="rgb(0,69,134)" stroke="none" d="M 4082,1118 L 4082,1368 4332,1368 4332,1118 4082,1118 Z"/>
 <path fill="none" stroke="rgb(0,69,134)" stroke-linejoin="round" d="M 4082,1118 L 4082,1368 4332,1368 4332,1118 4082,1118 Z"/>
 <path fill="rgb(0,69,134)" stroke="none" d="M 5345,1110 L 5345,1360 5595,1360 5595,1110 5345,1110 Z"/>
 <path fill="none" stroke="rgb(0,69,134)" stroke-linejoin="round" d="M 5345,1110 L 5345,1360 5595,1360 5595,1110 5345,1110 Z"/>
 <path fill="rgb(0,69,134)" stroke="none" d="M 6608,716 L 6608,966 6858,966 6858,716 6608,716 Z"/>
 <path fill="none" stroke="rgb(0,69,134)" stroke-linejoin="round" d="M 6608,716 L 6608,966 6858,966 6858,716 6608,716 Z"/>
 <path fill="rgb(0,69,134)" stroke="none" d="M 7870,1135 L 7870,1385 8119,1385 8119,1135 7870,1135 Z"/>
 <path fill="none" stroke="rgb(0,69,134)" stroke-linejoin="round" d="M 7870,1135 L 7870,1385 8119,1385 8119,1135 7870,1135 Z"/>
 <path fill="rgb(0,69,134)" stroke="none" d="M 9132,939 L 9132,1189 9382,1189 9382,939 9132,939 Z"/>
 <path fill="none" stroke="rgb(0,69,134)" stroke-linejoin="round" d="M 9132,939 L 9132,1189 9382,1189 9382,939 9132,939 Z"/>
 <path fill="rgb(0,69,134)" stroke="none" d="M 10395,1066 L 10395,1316 10645,1316 10645,1066 10395,1066 Z"/>
 <path fill="none" stroke="rgb(0,69,134)" stroke-linejoin="round" d="M 10395,1066 L 10395,1316 10645,1316 10645,1066 10395,1066 Z"/>
 <path fill="rgb(0,69,134)" stroke="none" d="M 11658,1030 L 11658,1280 11908,1280 11908,1030 11658,1030 Z"/>
 <path fill="none" stroke="rgb(0,69,134)" stroke-linejoin="round" d="M 11658,1030 L 11658,1280 11908,1280 11908,1030 11658,1030 Z"/>
 <path fill="rgb(0,69,134)" stroke="none" d="M 12921,815 L 12921,1065 13171,1065 13171,815 12921,815 Z"/>
 <path fill="none" stroke="rgb(0,69,134)" stroke-linejoin="round" d="M 12921,815 L 12921,1065 13171,1065 13171,815 12921,815 Z"/>
 <text class="TextShape"><tspan class="TextParagraph" font-family="Liberation Sans" font-size="353px" font-weight="400"><tspan class="TextPosition" x="1497" y="7763"><tspan fill="rgb(0,0,0)" stroke="none">10</tspan></tspan></tspan></text>
 <text class="TextShape"><tspan class="TextParagraph" font-family="Liberation Sans" font-size="353px" font-weight="400"><tspan class="TextPosition" x="2759" y="7763"><tspan fill="rgb(0,0,0)" stroke="none">20</tspan></tspan></tspan></text>
 <text class="TextShape"><tspan class="TextParagraph" font-family="Liberation Sans" font-size="353px" font-weight="400"><tspan class="TextPosition" x="4022" y="7763"><tspan fill="rgb(0,0,0)" stroke="none">30</tspan></tspan></tspan></text>
 <text class="TextShape"><tspan class="TextParagraph" font-family="Liberation Sans" font-size="353px" font-weight="400"><tspan class="TextPosition" x="5285" y="7763"><tspan fill="rgb(0,0,0)" stroke="none">40</tspan></tspan></tspan></text>
 <text class="TextShape"><tspan class="TextParagraph" font-family="Liberation Sans" font-size="353px" font-weight="400"><tspan class="TextPosition" x="6548" y="7763"><tspan fill="rgb(0,0,0)" stroke="none">50</tspan></tspan></tspan></text>
 <text class="TextShape"><tspan class="TextParagraph" font-family="Liberation Sans" font-size="353px" font-weight="400"><tspan class="TextPosition" x="7810" y="7763"><tspan fill="rgb(0,0,0)" stroke="none">60</tspan></tspan></tspan></text>
 <text class="TextShape"><tspan class="TextParagraph" font-family="Liberation Sans" font-size="353px" font-weight="400"><tspan class="TextPosition" x="9073" y="7763"><tspan fill="rgb(0,0,0)" stroke="none">70</tspan></tspan></tspan></text>
 <text class="TextShape"><tspan class="TextParagraph" font-family="Liberation Sans" font-size="353px" font-weight="400"><tspan class="TextPosition" x="10336" y="7763"><tspan fill="rgb(0,0,0)" stroke="none">80</tspan></tspan></tspan></text>
 <text class="TextShape"><tspan class="TextParagraph" font-family="Liberation Sans" font-size="353px" font-weight="400"><tspan class="TextPosition" x="11599" y="7763"><tspan fill="rgb(0,0,0)" stroke="none">90</tspan></tspan></tspan></text>
 <text class="TextShape"><tspan class="TextParagraph" font-family="Liberation Sans" font-size="353px" font-weight="400"><tspan class="TextPosition" x="12769" y="7763"><tspan fill="rgb(0,0,0)" stroke="none">100</tspan></tspan></tspan></text>
 <text class="TextShape"><tspan class="TextParagraph" font-family="Liberation Sans" font-size="353px" font-weight="400"><tspan class="TextPosition" x="321" y="7316"><tspan fill="rgb(0,0,0)" stroke="none">118000</tspan></tspan></tspan></text>
 <text class="TextShape"><tspan class="TextParagraph" font-family="Liberation Sans" font-size="353px" font-weight="400"><tspan class="TextPosition" x="321" y="6463"><tspan fill="rgb(0,0,0)" stroke="none">118500</tspan></tspan></tspan></text>
 <text class="TextShape"><tspan class="TextParagraph" font-family="Liberation Sans" font-size="353px" font-weight="400"><tspan class="TextPosition" x="321" y="5611"><tspan fill="rgb(0,0,0)" stroke="none">119000</tspan></tspan></tspan></text>
 <text class="TextShape"><tspan class="TextParagraph" font-family="Liberation Sans" font-size="353px" font-weight="400"><tspan class="TextPosition" x="321" y="4759"><tspan fill="rgb(0,0,0)" stroke="none">119500</tspan></tspan></tspan></text>
 <text class="TextShape"><tspan class="TextParagraph" font-family="Liberation Sans" font-size="353px" font-weight="400"><tspan class="TextPosition" x="321" y="3907"><tspan fill="rgb(0,0,0)" stroke="none">120000</tspan></tspan></tspan></text>
 <text class="TextShape"><tspan class="TextParagraph" font-family="Liberation Sans" font-size="353px" font-weight="400"><tspan class="TextPosition" x="321" y="3054"><tspan fill="rgb(0,0,0)" stroke="none">120500</tspan></tspan></tspan></text>
 <text class="TextShape"><tspan class="TextParagraph" font-family="Liberation Sans" font-size="353px" font-weight="400"><tspan class="TextPosition" x="321" y="2202"><tspan fill="rgb(0,0,0)" stroke="none">121000</tspan></tspan></tspan></text>
 <text class="TextShape"><tspan class="TextParagraph" font-family="Liberation Sans" font-size="353px" font-weight="400"><tspan class="TextPosition" x="321" y="1350"><tspan fill="rgb(0,0,0)" stroke="none">121500</tspan></tspan></tspan></text>
 <text class="TextShape"><tspan class="TextParagraph" font-family="Liberation Sans" font-size="353px" font-weight="400"><tspan class="TextPosition" x="321" y="498"><tspan fill="rgb(0,0,0)" stroke="none">122000</tspan></tspan></tspan></text>
 <path fill="none" stroke="rgb(0,69,134)" stroke-width="80" stroke-linejoin="round" d="M 13762,4501 L 14562,4501"/>
 <path fill="rgb(0,69,134)" stroke="none" d="M 14056,4396 L 14056,4605 14267,4605 14267,4396 14056,4396 Z"/>
 <path fill="none" stroke="rgb(0,69,134)" stroke-linejoin="round" d="M 14056,4396 L 14056,4605 14267,4605 14267,4396 14056,4396 Z"/>
 <text class="TextShape"><tspan class="TextParagraph" font-family="Liberation Sans" font-size="353px" font-weight="400"><tspan class="TextPosition" x="14662" y="4620"><tspan fill="rgb(0,0,0)" stroke="none">fitness</tspan></tspan></tspan></text>
 <text class="TextShape"><tspan class="TextParagraph" font-family="Liberation Sans" font-size="318px" font-weight="400"><tspan class="TextPosition" x="5672" y="8410"><tspan fill="rgb(0,0,0)" stroke="none">tournament size</tspan></tspan></tspan></text>
</svg>